<svg width="270" height="231" viewBox="0 0 270 231" fill="none" xmlns="http://www.w3.org/2000/svg">
<g clip-path="url(#clip0_14_973)">
<g clip-path="url(#clip1_14_973)">
<path fill-rule="evenodd" clip-rule="evenodd" d="M249.515 28.1415C270.909 55.4131 272.087 97.4901 264.943 129.165C261.976 142.322 257.652 155.387 250.025 166.484C242.353 177.646 231.649 186.364 220.394 193.847C192.584 212.336 160.431 224.175 127.322 228.114C104.479 230.831 80.8433 229.748 59.235 221.821C37.6268 213.895 18.1785 198.644 7.92914 177.939C-8.58095 144.59 2.04455 101.893 27.5778 74.9003C40.0143 61.7547 55.4043 51.8067 71.2105 43.0501C84.5349 35.6687 98.2612 29.0438 112.084 22.6536C136.334 11.4464 161.735 0.767995 188.422 0.552222C205.471 0.413511 223.149 5.34547 236.883 15.7073C241.709 19.3482 245.902 23.5333 249.515 28.1415Z" fill="#FDE7DE"/>
<mask id="mask0_14_973" style="mask-type:alpha" maskUnits="userSpaceOnUse" x="0" y="0" width="270" height="230">
<path d="M249.998 28.1415C271.391 55.4131 272.569 97.4901 265.424 129.165C262.458 142.322 258.135 155.387 250.507 166.484C242.835 177.646 232.132 186.364 220.876 193.847C193.066 212.336 160.914 224.175 127.804 228.114C104.962 230.831 81.3265 229.748 59.7171 221.821C38.1089 213.895 18.6606 198.644 8.41004 177.939C-8.10005 144.59 2.52663 101.893 28.0599 74.9003C40.4964 61.7547 55.8864 51.8067 71.6914 43.0501C85.0169 35.6687 98.7433 29.0438 112.568 22.6536C136.814 11.4464 162.217 0.767995 188.903 0.552222C205.952 0.413511 223.631 5.34547 237.365 15.7073C242.191 19.3482 246.383 23.5333 249.998 28.1415Z" fill="white"/>
</mask>
<g mask="url(#mask0_14_973)">
<path d="M128.001 159.307L117.134 271.534M161.754 159.882L181.059 270.958" stroke="#121514" stroke-width="3"/>
<path fill-rule="evenodd" clip-rule="evenodd" d="M61.7015 170.667C61.6473 170.615 61.5931 170.564 61.5377 170.51C55.8146 165.003 51.7021 157.447 51.6498 149.482C51.5913 140.323 56.8757 131.794 63.7896 125.83C71.2718 119.374 82.3925 112.838 91.5914 109.461C102.716 105.375 115.372 107.499 126.593 103.01C142.339 96.7123 154.836 85.2574 165.59 72.3643C175.654 60.2976 183.062 42.5224 199.473 38.3718C205.06 36.9586 211.166 37.14 216.367 39.6308C224.944 43.7376 229.621 53.1795 232.331 62.3356C238.382 82.789 237.612 105.219 230.176 125.204C208.474 183.525 136.611 204.233 81.8596 182.605C74.5554 179.721 67.3987 176.087 61.7015 170.667Z" fill="#E57A74"/>
<path fill-rule="evenodd" clip-rule="evenodd" d="M152.76 125.46C151.404 114.5 140.567 108.939 130.977 107.057C117.891 104.488 105.098 100.381 92.9472 94.8601C90.0432 93.5406 87.1593 92.1345 84.2093 90.924C81.9043 89.9791 79.5616 89.1552 77.1375 88.5837C59.005 84.3192 46.4718 94.9905 36.1753 108.374C28.9796 117.729 22.1801 127.394 15.8038 137.333C8.38181 148.899 1.53041 160.845 -6.39981 172.077C-8.38531 174.888 -10.3968 178.111 -12.7607 180.867C-10.0501 184.667 -7.07304 188.328 -4.39426 192.125C-2.55967 190.61 -0.808802 188.936 0.96919 187.381C19.855 170.862 39.8032 155.569 60.6474 141.634C62.1047 140.66 63.6115 139.672 65.3258 139.321C67.6191 138.853 69.9689 139.58 72.1914 140.317C82.7426 143.82 93.6251 146.564 104.568 148.484C114.249 150.182 124.826 151.706 134.566 149.608C145.004 147.362 154.158 136.783 152.76 125.46Z" fill="#5FC1CB"/>
<path fill-rule="evenodd" clip-rule="evenodd" d="M9.01953 240.118C20.6649 241.55 32.3857 242.361 44.116 242.551C48.5197 217.663 52.9234 192.777 57.326 167.891C80.6957 170.964 104.419 170.685 127.878 168.415C136.194 167.611 144.654 166.51 152.197 162.903C166.341 156.141 170.856 142.235 167.166 127.425C166.435 124.488 165.206 121.633 163.263 119.32C160.287 115.781 155.856 113.764 151.361 112.735C142.447 110.692 134.374 113.51 125.491 113.668C114.008 113.873 102.572 115.124 91.2045 116.694C69.193 119.738 46.3585 124.439 29.0479 138.442C21.0021 144.952 18.7631 152.369 16.4946 162.109C10.6218 187.329 10.8789 214.323 9.01953 240.118Z" fill="#5FC1CB"/>
<path fill-rule="evenodd" clip-rule="evenodd" d="M148.201 65.6284C148.333 65.4648 148.462 65.3012 148.592 65.1352C150.899 62.2104 153.868 58.8126 157.528 59.4469C159.95 59.8666 161.765 62.1025 162.341 64.5045C162.915 66.9076 162.461 69.4388 161.77 71.81C159.477 79.6845 153.854 85.1369 148.603 91.162C143.147 97.4218 135.773 104.073 127.082 104.606C122.703 104.875 117.406 103.114 116.503 98.797C116.009 96.4401 117.047 93.9777 118.621 92.1638C120.195 90.3487 122.259 89.0505 124.249 87.7108C133.286 81.6288 141.393 74.1538 148.201 65.6284Z" fill="#FFFFFE"/>
<path fill-rule="evenodd" clip-rule="evenodd" d="M148.201 65.6284C148.333 65.4648 148.462 65.3012 148.592 65.1352C150.899 62.2104 153.868 58.8126 157.528 59.4469C159.95 59.8666 161.765 62.1025 162.341 64.5045C162.915 66.9076 162.461 69.4388 161.77 71.81C159.477 79.6845 153.854 85.1369 148.603 91.162C143.147 97.4218 135.773 104.073 127.082 104.606C122.703 104.875 117.406 103.114 116.503 98.797C116.009 96.4401 117.047 93.9777 118.621 92.1638C120.195 90.3487 122.259 89.0505 124.249 87.7108C133.286 81.6288 141.393 74.1538 148.201 65.6284Z" stroke="#000105" stroke-width="0.5"/>
<path fill-rule="evenodd" clip-rule="evenodd" d="M178.992 141.056C187.025 129.405 194.243 117.14 201.427 104.925C204.972 98.8963 209.305 91.7687 209.437 84.5723C209.501 81.0808 207.736 75.364 205.172 72.7487C201.712 69.2216 195.513 69.7859 191.371 67.3721C182.624 62.2754 175.858 55.0861 164.95 55.3742C159.596 55.5164 154.553 57.5829 150.253 60.7211C146.03 63.8012 142.754 67.8843 139.505 71.9354C138.341 73.3841 138.022 73.3533 138.803 74.8483C139.2 75.6047 139.959 76.4986 140.475 77.1945C141.893 79.1069 143.766 80.8141 145.734 82.1407C146.052 82.3565 146.416 82.6268 146.413 83.0121C146.412 83.254 146.26 83.4662 146.115 83.6594C142.165 88.9198 138.182 93.7202 132.61 97.2816C131.187 98.1921 121.258 105.622 119.707 103.125C124.439 110.743 129.322 118.265 134.349 125.688C142.971 138.415 152.097 150.936 163.322 161.412C168.959 154.95 174.125 148.115 178.992 141.056Z" fill="#35619C"/>
<path fill-rule="evenodd" clip-rule="evenodd" d="M131.075 114.474L83.2625 92.1436C82.6399 91.852 82.8038 90.9201 83.4888 90.862L116.676 88.0416L166.776 111.441L131.075 114.474Z" fill="#FFFFFE"/>
<path fill-rule="evenodd" clip-rule="evenodd" d="M131.075 114.474L83.2625 92.1436C82.6399 91.852 82.8038 90.9201 83.4888 90.862L116.676 88.0416L166.776 111.441L131.075 114.474Z" stroke="#121514" stroke-width="0.5"/>
<path fill-rule="evenodd" clip-rule="evenodd" d="M130.634 109.895L104.738 97.8013L122.795 97.0923L148.691 109.186L130.634 109.895Z" fill="#FFFFFE"/>
<path fill-rule="evenodd" clip-rule="evenodd" d="M130.634 109.895L104.738 97.8013L122.795 97.0923L148.691 109.186L130.634 109.895Z" stroke="#121514" stroke-width="0.5"/>
<path fill-rule="evenodd" clip-rule="evenodd" d="M186.999 101.338C184.931 103.966 182.864 106.594 180.796 109.223C179.848 110.427 170.702 108.557 169.126 108.317C165.149 107.714 161.226 106.794 157.386 105.596C149.701 103.2 143.008 100.428 135.568 97.1799C130.661 95.0388 125.388 93.4276 120.045 93.7014C117.488 93.8319 114.532 94.7519 113.712 97.1918C112.928 99.5321 114.634 102.074 116.779 103.275C119.059 104.549 121.963 104.306 124.162 105.519C125.972 106.516 127.455 108.374 129.383 109.433C145.752 118.422 158.468 134.863 177.798 137.398C182.462 138.01 187.401 137.552 191.494 135.219C194.806 133.333 197.348 130.363 199.819 127.452C207.866 117.978 218.405 105.356 215.335 91.8389C214.955 90.1708 214.253 88.5134 212.971 87.3895C211.461 86.064 209.341 85.6526 207.339 85.7404C199.569 86.0818 193.754 92.7506 188.928 98.8847C188.284 99.7016 187.642 100.521 186.999 101.338Z" fill="#FFFFFE"/>
<path fill-rule="evenodd" clip-rule="evenodd" d="M186.999 101.338C184.931 103.966 182.864 106.594 180.796 109.223C179.848 110.427 170.702 108.557 169.126 108.317C165.149 107.714 161.226 106.794 157.386 105.596C149.701 103.2 143.008 100.428 135.568 97.1799C130.661 95.0388 125.388 93.4276 120.045 93.7014C117.488 93.8319 114.532 94.7519 113.712 97.1918C112.928 99.5321 114.634 102.074 116.779 103.275C119.059 104.549 121.963 104.306 124.162 105.519C125.972 106.516 127.455 108.374 129.383 109.433C145.752 118.422 158.468 134.863 177.798 137.398C182.462 138.01 187.401 137.552 191.494 135.219C194.806 133.333 197.348 130.363 199.819 127.452C207.866 117.978 218.405 105.356 215.335 91.8389C214.955 90.1708 214.253 88.5134 212.971 87.3895C211.461 86.064 209.341 85.6526 207.339 85.7404C199.569 86.0818 193.754 92.7506 188.928 98.8847C188.284 99.7016 187.642 100.521 186.999 101.338Z" stroke="#121514" stroke-width="0.5"/>
<path fill-rule="evenodd" clip-rule="evenodd" d="M81.0388 90.5492L78.4001 56.7487L130.324 80.5347L131.075 114.471L82.1448 92.1355C81.5164 91.8474 81.0931 91.2416 81.0388 90.5492Z" fill="#000105"/>
<path fill-rule="evenodd" clip-rule="evenodd" d="M103.034 100.343C100.903 97.7213 100.422 94.2796 99.9507 91.0299C99.5616 88.3517 99.1737 85.6735 98.7846 82.9953C98.6703 82.2046 98.5394 81.3747 98.056 80.7404C97.5973 80.1369 96.7154 79.8204 96.0681 80.1796C95.9325 80.0113 95.7958 79.8441 95.6401 79.6995C95.0942 79.1909 94.4611 78.6834 93.6688 78.8459C92.9956 78.9834 92.4072 79.5833 92.1808 80.2484C92.1195 80.1607 92.0641 80.0682 91.9804 79.9947C91.3107 79.4244 90.1906 79.7694 89.5799 80.2934C89.0823 80.7214 89.0257 81.383 89.001 82.041C89.0222 81.4707 87.5484 81.5928 87.289 81.7552C86.7478 82.0955 86.6016 82.7867 86.5415 83.383C86.2562 86.2082 86.3788 89.0619 86.7207 91.88C86.9789 94.001 87.2112 95.79 88.4445 97.5932C89.0918 98.5405 89.9112 99.368 90.8521 100.02C91.9049 100.749 92.7645 100.88 93.9541 101.143C94.9846 101.373 95.9915 101.7 96.9854 102.057C99.4095 102.925 101.987 103.982 104.47 103.309C104.786 103.223 105.151 103.036 105.156 102.709C105.161 102.366 104.784 102.174 104.488 102.007C103.804 101.619 103.593 101.012 103.123 100.452C103.094 100.416 103.063 100.379 103.034 100.343Z" fill="#FFFFFE"/>
<path fill-rule="evenodd" clip-rule="evenodd" d="M103.034 100.343C100.903 97.7213 100.422 94.2796 99.9507 91.0299C99.5616 88.3517 99.1737 85.6735 98.7846 82.9953C98.6703 82.2046 98.5394 81.3747 98.056 80.7404C97.5973 80.1369 96.7154 79.8204 96.0681 80.1796C95.9325 80.0113 95.7958 79.8441 95.6401 79.6995C95.0942 79.1909 94.4611 78.6834 93.6688 78.8459C92.9956 78.9834 92.4072 79.5833 92.1808 80.2484C92.1195 80.1607 92.0641 80.0682 91.9804 79.9947C91.3107 79.4244 90.1906 79.7694 89.5799 80.2934C89.0823 80.7214 89.0257 81.383 89.001 82.041C89.0222 81.4707 87.5484 81.5928 87.289 81.7552C86.7478 82.0955 86.6016 82.7867 86.5415 83.383C86.2562 86.2082 86.3788 89.0619 86.7207 91.88C86.9789 94.001 87.2112 95.79 88.4445 97.5932C89.0918 98.5405 89.9112 99.368 90.8521 100.02C91.9049 100.749 92.7645 100.88 93.9541 101.143C94.9846 101.373 95.9915 101.7 96.9854 102.057C99.4095 102.925 101.987 103.982 104.47 103.309C104.786 103.223 105.151 103.036 105.156 102.709C105.161 102.366 104.784 102.174 104.488 102.007C103.804 101.619 103.593 101.012 103.123 100.452C103.094 100.416 103.063 100.379 103.034 100.343Z" stroke="#000105" stroke-width="0.5"/>
<path fill-rule="evenodd" clip-rule="evenodd" d="M96.0823 80.0533C96.1082 82.6366 96.2556 85.22 96.5221 87.7891C96.7673 90.1555 96.7225 92.6653 97.5679 94.9132" fill="#FFFFFE"/>
<path d="M96.0823 80.0533C96.1082 82.6366 96.2556 85.22 96.5221 87.7891C96.7673 90.1555 96.7225 92.6653 97.5679 94.9132" stroke="#000105" stroke-width="0.5"/>
<path fill-rule="evenodd" clip-rule="evenodd" d="M92.5004 79.6313C92.2964 83.7263 93.183 90.2492 93.9647 94.2731L92.5004 79.6313Z" fill="#FFFFFE"/>
<path d="M92.5004 79.6313C92.2964 83.7263 93.183 90.2492 93.9647 94.2731" stroke="#000105" stroke-width="0.5"/>
<path fill-rule="evenodd" clip-rule="evenodd" d="M89.1117 78.9399C89.2319 79.4378 89.1871 79.9571 89.1506 80.4681C88.8818 84.3745 89.3392 89.6942 90.3697 93.4702" fill="#FFFFFE"/>
<path d="M89.1117 78.9399C89.2319 79.4378 89.1871 79.9571 89.1506 80.4681C88.8818 84.3745 89.3392 89.6942 90.3697 93.4702" stroke="#000105" stroke-width="0.5"/>
<path fill-rule="evenodd" clip-rule="evenodd" d="M192.42 67.4155C197.629 66.7563 202.949 66.1007 208.092 67.1547C221.02 69.8044 224.915 84.3051 222.979 95.9284C221.23 106.434 215.706 115.52 209.321 123.822C199.781 117.443 190.906 109.526 181.367 103.146C180.803 102.768 184.285 100.028 188.114 91.1909" fill="#35619C"/>
<path fill-rule="evenodd" clip-rule="evenodd" d="M189.097 70.1296C187.34 69.6222 185.666 68.8575 184.177 67.7905C182.446 66.5504 180.994 64.8882 180.055 62.9676C179.552 61.9421 179.486 59.2212 178.141 59.0102C179.521 59.859 181.702 60.1376 183.255 59.6753C184.707 59.2414 185.608 57.674 186.339 56.4541C187.282 54.8808 188.278 53.3918 188.888 51.6348C188.921 51.5399 188.954 51.4415 188.949 51.3407C188.929 50.921 187.88 50.4456 187.553 50.2619C187.032 49.9667 186.462 49.7248 185.977 49.3668C184.694 48.4195 183.51 47.3074 182.743 45.8883C181.822 44.1811 181.578 42.1965 181.425 40.2616C180.754 31.7955 183.421 23.1574 189.771 17.2664C190.281 16.7933 190.828 16.3321 191.482 16.1081C193.885 15.2853 195.927 17.5865 198.098 18.1283C200.208 18.6547 202.164 19.1763 204.254 19.9469C206.759 20.8693 209.331 21.6043 211.806 22.6085C213.28 23.206 216.711 24.2304 217.232 25.9874C217.809 27.9258 216.077 29.9745 215.465 31.6734C214.749 33.6616 214.18 35.6426 213.36 37.6332C211.576 41.957 210.144 46.4159 208.821 50.9009C207.841 54.2193 206.775 57.5353 206.267 60.9675C206.063 62.3511 205.845 63.8319 206.33 65.1834C206.541 65.7703 206.914 66.3014 207.391 66.6998C207.604 66.88 208.681 67.647 208.977 67.4277C207.892 68.2327 206.683 68.8705 205.406 69.3116C204.445 69.6423 203.452 69.8617 202.46 70.081C197.937 71.0781 193.609 71.4325 189.097 70.1296Z" fill="#FFFFFE"/>
<path fill-rule="evenodd" clip-rule="evenodd" d="M189.097 70.1296C187.34 69.6222 185.666 68.8575 184.177 67.7905C182.446 66.5504 180.994 64.8882 180.055 62.9676C179.552 61.9421 179.486 59.2212 178.141 59.0102C179.521 59.859 181.702 60.1376 183.255 59.6753C184.707 59.2414 185.608 57.674 186.339 56.4541C187.282 54.8808 188.278 53.3918 188.888 51.6348C188.921 51.5399 188.954 51.4415 188.949 51.3407C188.929 50.921 187.88 50.4456 187.553 50.2619C187.032 49.9667 186.462 49.7248 185.977 49.3668C184.694 48.4195 183.51 47.3074 182.743 45.8883C181.822 44.1811 181.578 42.1965 181.425 40.2616C180.754 31.7955 183.421 23.1574 189.771 17.2664C190.281 16.7933 190.828 16.3321 191.482 16.1081C193.885 15.2853 195.927 17.5865 198.098 18.1283C200.208 18.6547 202.164 19.1763 204.254 19.9469C206.759 20.8693 209.331 21.6043 211.806 22.6085C213.28 23.206 216.711 24.2304 217.232 25.9874C217.809 27.9258 216.077 29.9745 215.465 31.6734C214.749 33.6616 214.18 35.6426 213.36 37.6332C211.576 41.957 210.144 46.4159 208.821 50.9009C207.841 54.2193 206.775 57.5353 206.267 60.9675C206.063 62.3511 205.845 63.8319 206.33 65.1834C206.541 65.7703 206.914 66.3014 207.391 66.6998C207.604 66.88 208.681 67.647 208.977 67.4277C207.892 68.2327 206.683 68.8705 205.406 69.3116C204.445 69.6423 203.452 69.8617 202.46 70.081C197.937 71.0781 193.609 71.4325 189.097 70.1296Z" stroke="#121514" stroke-width="0.5"/>
<path fill-rule="evenodd" clip-rule="evenodd" d="M211.082 40.176C212.255 40.061 213.44 39.5701 213.96 38.4427C215.416 42.8328 222.156 40.9098 222.401 36.7023C222.511 34.822 221.086 32.9215 219.229 32.6773C220.471 32.2196 221.738 31.7324 222.724 30.8456C223.71 29.9599 224.365 28.5788 224.034 27.2924C223.534 25.3528 221.137 24.5692 219.16 24.8063C220.997 23.8732 222.271 20.7208 221.212 18.8678C220.5 17.6194 219.173 17.1428 217.813 17.0894C217.303 17.0681 214.684 17.2115 214.448 17.7284C215.503 15.4166 214.514 12.3649 212.304 11.1248C210.093 9.88355 206.992 10.6364 205.588 12.755C205.75 9.85272 203.939 6.84731 201.181 5.97711C198.751 5.21004 193.608 7.03937 194.314 10.3258C192.773 9.57056 191.254 8.77267 189.484 8.77623C187.744 8.77979 185.911 9.69979 185.28 11.3311C184.648 12.9625 185.71 15.1593 187.445 15.2921C186.198 15.3976 184.924 15.6146 183.853 16.2666C182.782 16.9187 181.948 18.0853 181.994 19.342C182.022 20.0925 182.344 20.7469 182.841 21.2816C183.635 22.1388 184.874 22.6877 186.062 22.8406C187.589 23.0362 189.168 22.7991 190.572 22.1613C189.456 23.5152 189.812 25.7109 191.076 26.9273C192.338 28.1425 194.254 28.4744 195.975 28.1662C197.696 27.8567 199.263 26.9877 200.745 26.0559C199.474 27.4501 200.253 29.9149 201.873 30.8788C203.496 31.8438 205.536 31.6411 207.269 31.1135C205.429 31.6755 206.039 36.4663 206.372 37.7408C206.599 38.6122 207.28 39.32 208.084 39.7172C208.889 40.1143 209.806 40.2281 210.702 40.2009C210.829 40.1961 210.956 40.189 211.082 40.176Z" fill="#121514"/>
<path fill-rule="evenodd" clip-rule="evenodd" d="M188.974 51.0416C188.91 51.204 188.847 51.3676 188.778 51.53C188.699 51.7221 188.618 51.9153 188.535 52.1074C188.531 52.1192 188.525 52.1311 188.521 52.143C188.446 52.5508 188.3 52.929 188.104 53.287C188.073 53.3795 188.035 53.4708 188.005 53.5633C187.873 53.9581 187.699 54.3327 187.519 54.7014C189.553 54.8425 192.173 54.8591 194.019 52.9491C194.515 52.4358 195.107 51.8667 195.421 51.2443C193.379 51.7897 191.1 51.683 188.974 51.0416Z" fill="#000105"/>
<path d="M183.859 39.6236C183.862 41.089 184.865 42.4998 186.245 42.9764C187.624 43.4506 189.277 42.955 190.173 41.7979" stroke="#121514" stroke-width="0.5"/>
<path fill-rule="evenodd" clip-rule="evenodd" d="M204.864 37.5019C206.177 36.4265 207.855 35.7377 209.546 35.8456C211.236 35.9535 212.903 36.9423 213.601 38.4942C214.22 39.873 214.009 41.5648 213.166 42.8191C212.321 44.0723 210.901 44.8856 209.41 45.1013C208.164 45.2804 206.786 45.0195 205.906 44.1138" fill="#FFFFFE"/>
<path d="M204.864 37.5019C206.177 36.4265 207.855 35.7377 209.546 35.8456C211.236 35.9535 212.903 36.9423 213.601 38.4942C214.22 39.873 214.009 41.5648 213.166 42.8191C212.321 44.0723 210.901 44.8856 209.41 45.1013C208.164 45.2804 206.786 45.0195 205.906 44.1138" stroke="#121514" stroke-width="0.5"/>
<path fill-rule="evenodd" clip-rule="evenodd" d="M210.501 37.6843C209.646 37.567 208.771 37.8112 208.008 38.2155C207.243 38.6209 206.572 39.1782 205.908 39.7306" fill="#FFFFFE"/>
<path d="M210.501 37.6843C209.646 37.567 208.771 37.8112 208.008 38.2155C207.243 38.6209 206.572 39.1782 205.908 39.7306" stroke="#121514" stroke-width="0.5"/>
<path fill-rule="evenodd" clip-rule="evenodd" d="M145.763 84.4592C147.341 82.548 148.919 80.6369 150.496 78.7258C151.286 77.7678 152.077 76.8075 152.753 75.7642" fill="#6186B7"/>
<path d="M145.763 84.4592C147.341 82.548 148.919 80.6369 150.496 78.7258C151.286 77.7678 152.077 76.8075 152.753 75.7642" stroke="#000105" stroke-width="0.5"/>
<path d="M119.354 126.73C97.3333 122.524 82.982 121.121 60.9611 116.916C51.1586 115.044 39.9306 118.748 33.1711 126.128C26.4117 133.508 22.8463 143.225 19.7714 152.77C17.3142 160.399 15.0635 168.095 13.0249 175.846M57.1151 169.036C56.285 164.698 55.2946 160.391 54.1474 156.127M184.1 105.18C183.374 104.65 182.65 104.12 181.925 103.591C185.78 98.8245 189.637 94.0586 193.491 89.2914C194.124 88.5113 194.794 87.5925 194.625 86.6002" stroke="#121514" stroke-width="0.5"/>
<path fill-rule="evenodd" clip-rule="evenodd" d="M145.087 80.6307C145.127 80.4375 145.193 80.2501 145.283 80.077C145.552 79.5637 146.118 78.9531 146.717 78.8666C147.524 78.7504 148.19 79.0326 148.48 78.0497C148.735 77.1843 149.381 76.6982 150.323 76.6448C150.637 76.6271 150.952 76.6721 151.267 76.646C151.442 76.6318 151.861 76.4611 152.024 76.5452C152.443 76.7575 151.766 77.4451 151.568 77.7332C151.08 78.4433 150.58 79.1439 150.056 79.8256C149.553 80.4812 149.027 81.1192 148.469 81.7274C148.316 81.8945 146.674 83.4026 146.695 83.4488C146.422 82.8442 145.714 82.5632 145.334 82.019C145.056 81.6218 144.989 81.1109 145.087 80.6307Z" fill="#000105"/>
<path d="M178.327 134.586C180.094 135.004 181.921 135.237 183.725 135.052C185.529 134.866 187.318 134.24 188.719 133.082M190.178 132.17C191.046 131.427 191.813 130.565 192.45 129.613M179.997 109.608C180.901 109.653 181.805 109.662 182.71 109.634M133.856 164.416C137.226 164.16 140.569 163.547 143.81 162.59C145.493 162.093 149.547 160.721 151.117 159.933M172.363 145.468C170.889 147.174 169.413 148.881 167.938 150.586M55.9513 154.592C56.0256 155.853 56.0987 157.115 56.173 158.376M136.731 161.928C138.132 161.706 139.535 161.486 140.935 161.264M44.109 123.976C42.5279 124.246 41.0223 124.956 39.8032 126.004M59.2172 92.4478C57.4239 93.107 55.6966 93.9464 54.0707 94.9517M38.3117 127.338C37.9214 127.893 37.5324 128.446 37.1421 129.001" stroke="#121514" stroke-width="0.5"/>
</g>
</g>
</g>
<defs>
<clipPath id="clip0_14_973">
<rect width="270" height="230" fill="white" transform="translate(0 0.190002)"/>
</clipPath>
<clipPath id="clip1_14_973">
<rect width="270" height="230" fill="white" transform="translate(0 0.190002)"/>
</clipPath>
</defs>
</svg>
