<svg width="88" height="89" viewBox="0 0 88 89" fill="none" xmlns="http://www.w3.org/2000/svg">
<g opacity="0.7">
<path fill-rule="evenodd" clip-rule="evenodd" d="M11.3618 32.4935C5.08439 32.4935 0 37.5779 0 43.8553C0 48.8829 3.2523 53.1293 7.76861 54.6348C8.3367 54.7342 8.54974 54.3934 8.54974 54.0951C8.54974 53.8253 8.53553 52.9305 8.53553 51.979C5.68089 52.5044 4.94237 51.2831 4.71514 50.644C4.58731 50.3173 4.03343 49.3089 3.55056 49.0391C3.15289 48.8261 2.5848 48.3006 3.53635 48.2864C4.43109 48.2722 5.07019 49.1102 5.28323 49.451C6.30579 51.1694 7.93904 50.6866 8.59234 50.3883C8.69176 49.6498 8.99 49.1528 9.31666 48.8687C6.78866 48.5847 4.14705 47.6047 4.14705 43.2588C4.14705 42.0232 4.58731 41.0007 5.31163 40.2053C5.19801 39.9213 4.80035 38.7567 5.42525 37.1945C5.42525 37.1945 6.37679 36.8962 8.54974 38.359C9.45868 38.1034 10.4244 37.9756 11.3901 37.9756C12.3559 37.9756 13.3216 38.1034 14.2306 38.359C16.4036 36.882 17.3551 37.1945 17.3551 37.1945C17.98 38.7567 17.5823 39.9213 17.4687 40.2053C18.193 41.0007 18.6333 42.009 18.6333 43.2588C18.6333 47.6189 15.9775 48.5847 13.4495 48.8687C13.8614 49.2238 14.2164 49.9055 14.2164 50.9707C14.2164 52.4902 14.2022 53.7117 14.2022 54.0951C14.2022 54.3934 14.4153 54.7484 14.9834 54.6348C17.2389 53.8734 19.1988 52.4237 20.5873 50.4901C21.9758 48.5563 22.723 46.2359 22.7236 43.8553C22.7236 37.5779 17.6391 32.4935 11.3618 32.4935Z" fill="#24292E"/>
<path d="M52.9667 49.3393H52.9402C52.9521 49.3393 52.96 49.3526 52.972 49.3539H52.98L52.9667 49.3407V49.3393ZM52.972 49.3539C52.8487 49.3553 52.5385 49.4202 52.2112 49.4202C51.1772 49.4202 50.8193 48.943 50.8193 48.32V44.1697H52.9269C53.0462 44.1697 53.139 44.0637 53.139 43.9178V41.6645C53.139 41.5452 53.033 41.4391 52.9269 41.4391H50.8193V38.6422C50.8193 38.5362 50.753 38.4699 50.6337 38.4699H47.7706C47.6513 38.4699 47.585 38.5362 47.585 38.6422V41.5187C47.585 41.5187 46.1401 41.8765 46.0473 41.8898C45.9414 41.9163 45.8751 42.0091 45.8751 42.1151V43.9178C45.8751 44.0637 45.9811 44.1697 46.1003 44.1697H47.5717V48.5175C47.5717 51.7518 49.8252 52.0832 51.3627 52.0832C52.0653 52.0832 52.9137 51.8579 53.0462 51.7916C53.1258 51.7651 53.1655 51.6723 53.1655 51.5795V49.5912C53.1673 49.5348 53.1487 49.4796 53.1133 49.4358C53.0777 49.392 53.0275 49.3624 52.972 49.3526V49.3539ZM84.382 46.4364C84.382 44.0371 83.4144 43.7191 82.3937 43.8251C81.5984 43.8781 80.9621 44.2758 80.9621 44.2758V48.9417C80.9621 48.9417 81.6116 49.3923 82.5793 49.4188C83.9445 49.4586 84.382 48.9682 84.382 46.4364ZM87.6031 46.2243C87.6031 50.7709 86.1317 52.07 83.5602 52.07C81.3863 52.07 80.2198 50.9698 80.2198 50.9698C80.2198 50.9698 80.1668 51.5795 80.1005 51.659C80.0607 51.7386 79.9944 51.7651 79.9149 51.7651H77.9531C77.8205 51.7651 77.7012 51.659 77.7012 51.5397L77.7277 36.813C77.7277 36.6937 77.8338 36.5876 77.9531 36.5876H80.7765C80.8958 36.5876 81.0018 36.6937 81.0018 36.813V41.8102C81.0018 41.8102 82.0888 41.1077 83.6795 41.1077L83.6662 41.0812C85.2568 41.0812 87.6031 41.6778 87.6031 46.2243ZM76.0443 41.4391H73.2607C73.1149 41.4391 73.0354 41.5452 73.0354 41.691V48.9019C73.0354 48.9019 72.3063 49.4188 71.3121 49.4188C70.318 49.4188 70.0264 48.9682 70.0264 47.9741V41.6778C70.0264 41.5584 69.9204 41.4524 69.8011 41.4524H66.9644C66.8451 41.4524 66.7391 41.5584 66.7391 41.6778V48.4512C66.7391 51.3674 68.3694 52.0965 70.6096 52.0965C72.4521 52.0965 73.95 51.0758 73.95 51.0758C73.95 51.0758 74.0163 51.5927 74.056 51.6723C74.0826 51.7386 74.1754 51.7916 74.2682 51.7916H76.0443C76.1902 51.7916 76.2697 51.6855 76.2697 51.5662L76.2962 41.6645C76.2962 41.5452 76.1902 41.4391 76.0443 41.4391ZM44.6291 41.4259H41.8056C41.6864 41.4259 41.5803 41.5452 41.5803 41.691V51.4204C41.5803 51.6855 41.7527 51.7783 41.9779 51.7783H44.523C44.7881 51.7783 44.8544 51.659 44.8544 51.4204V41.6512C44.8544 41.5319 44.7484 41.4259 44.6291 41.4259ZM43.2372 36.9455C42.2165 36.9455 41.408 37.7541 41.408 38.7748C41.408 39.7954 42.2165 40.6041 43.2372 40.6041C44.2314 40.6041 45.0399 39.7954 45.0399 38.7748C45.0399 37.7541 44.2314 36.9455 43.2372 36.9455ZM65.0953 36.6141H62.2985C62.1792 36.6141 62.0731 36.7202 62.0731 36.8395V42.2609H57.6856V36.8395C57.6856 36.7202 57.5795 36.6141 57.4603 36.6141H54.6368C54.5175 36.6141 54.4115 36.7202 54.4115 36.8395V51.5662C54.4115 51.6855 54.5308 51.7916 54.6368 51.7916H57.4603C57.5795 51.7916 57.6856 51.6855 57.6856 51.5662V45.2699H62.0731L62.0466 51.5662C62.0466 51.6855 62.1527 51.7916 62.272 51.7916H65.0953C65.2147 51.7916 65.3207 51.6855 65.3207 51.5662V36.8395C65.3207 36.7202 65.2147 36.6141 65.0953 36.6141ZM40.0824 43.1358V50.7444C40.0824 50.7974 40.0692 50.8902 40.0029 50.9167C40.0029 50.9167 38.346 52.0965 35.6153 52.0965C32.3147 52.0965 28.4044 51.0626 28.4044 44.2492C28.4044 37.436 31.8243 36.0309 35.1647 36.0442C38.0543 36.0442 39.2208 36.6937 39.4064 36.813C39.4595 36.8793 39.486 36.9323 39.486 36.9985L38.9292 39.358C38.9292 39.4773 38.8099 39.6231 38.6641 39.5834C38.1869 39.4376 37.4712 39.1459 35.7877 39.1459C33.8391 39.1459 31.7448 39.7026 31.7448 44.0902C31.7448 48.4777 33.7331 48.9947 35.1647 48.9947C36.3842 48.9947 36.8216 48.8489 36.8216 48.8489V45.8002H34.873C34.7272 45.8002 34.6212 45.6941 34.6212 45.5748V43.1358C34.6212 43.0165 34.7272 42.9104 34.873 42.9104H39.8305C39.9764 42.9104 40.0824 43.0165 40.0824 43.1358Z" fill="#24292E"/>
</g>
</svg>
