<svg width="168" height="55" viewBox="0 0 168 55" fill="none" xmlns="http://www.w3.org/2000/svg">
<g clip-path="url(#clip0_35_1900)">
<g clip-path="url(#clip1_35_1900)">
<g clip-path="url(#clip2_35_1900)">
<path d="M10.7877 54.0873C10.3536 54.0873 9.93003 54.0818 9.49935 54.0722C8.60717 54.0607 7.71707 53.9837 6.83635 53.8419C6.01513 53.7018 5.21959 53.4411 4.47597 53.0685C3.73916 52.6989 3.06714 52.2143 2.48563 51.6333C1.89572 51.0592 1.40458 50.3932 1.0317 49.6619C0.6547 48.9258 0.393796 48.1369 0.258073 47.3225C0.111505 46.4474 0.0322049 45.5625 0.0208579 44.6755C0.0118252 44.3778 0 43.3865 0 43.3865V10.7757C0 10.7757 0.0125946 9.7996 0.0209292 9.51284C0.0317938 8.62727 0.110633 7.74379 0.256763 6.87006C0.392736 6.05343 0.653842 5.26217 1.03104 4.52369C1.40256 3.79288 1.89096 3.12644 2.47733 2.55022C3.06303 1.96852 3.73721 1.48146 4.47527 1.1068C5.21718 0.735363 6.01122 0.476514 6.83078 0.338927C7.71439 0.195734 8.60758 0.118316 9.50286 0.107325L10.7884 0.0900879H157.205L158.506 0.108016C159.393 0.118462 160.278 0.195188 161.153 0.337543C161.981 0.476856 162.783 0.737511 163.534 1.11094C165.012 1.86598 166.215 3.06052 166.974 4.52713C167.346 5.26052 167.603 6.04532 167.737 6.8549C167.885 7.7358 167.968 8.62622 167.985 9.51906C167.989 9.91885 167.989 10.3483 167.989 10.7757C168 11.3051 168 11.8089 168 12.3169V41.8618C168 42.3746 168 42.8751 167.989 43.3796C167.989 43.8387 167.989 44.2592 167.983 44.6921C167.967 45.569 167.885 46.4435 167.74 47.3086C167.607 48.1289 167.347 48.924 166.97 49.6661C166.595 50.3895 166.107 51.0497 165.523 51.6223C164.941 52.2065 164.268 52.6939 163.53 53.0658C162.781 53.4413 161.98 53.7029 161.153 53.8419C160.273 53.9845 159.382 54.0614 158.49 54.0722C158.073 54.0818 157.636 54.0873 157.212 54.0873L155.667 54.0901L10.7877 54.0873Z" fill="black"/>
<path d="M34.0444 27.5228C34.0597 26.3445 34.3756 25.1892 34.9626 24.1644C35.5496 23.1396 36.3887 22.2785 37.4018 21.6614C36.7582 20.7506 35.9092 20.0011 34.9221 19.4723C33.935 18.9436 32.8371 18.6502 31.7156 18.6154C29.3231 18.3666 27.0037 20.0339 25.7846 20.0339C24.5419 20.0339 22.6648 18.6401 20.6435 18.6813C19.3361 18.7232 18.0619 19.0999 16.9451 19.7748C15.8283 20.4496 14.9069 21.3996 14.2709 22.5322C11.5154 27.2592 13.5707 34.2062 16.2102 38.0271C17.5307 39.8981 19.0741 41.988 21.0936 41.9139C23.0698 41.8327 23.8078 40.6653 26.1932 40.6653C28.5565 40.6653 29.2489 41.9139 31.3094 41.8668C33.4299 41.8326 34.7659 39.9875 36.0402 38.0988C36.989 36.7656 37.7191 35.2922 38.2035 33.7331C36.9715 33.2168 35.9202 32.3526 35.1806 31.2482C34.441 30.1439 34.0458 28.8482 34.0444 27.5228Z" fill="white"/>
<path d="M30.1528 16.0998C31.309 14.7245 31.8786 12.9568 31.7406 11.1721C29.9742 11.356 28.3426 12.1925 27.1708 13.515C26.5978 14.1611 26.159 14.9127 25.8794 15.7269C25.5998 16.5411 25.4849 17.402 25.5413 18.2602C26.4248 18.2692 27.2989 18.0795 28.0977 17.7053C28.8965 17.3311 29.5991 16.7821 30.1528 16.0998Z" fill="white"/>
<path d="M59.0253 37.1752H52.2816L50.6621 41.9134H47.8057L54.1932 24.3831H57.1609L63.5485 41.9134H60.6434L59.0253 37.1752ZM52.98 34.9887H58.3255L55.6904 27.2988H55.6166L52.98 34.9887Z" fill="white"/>
<path d="M77.3434 35.5197C77.3434 39.4915 75.1979 42.0433 71.9603 42.0433C71.1402 42.0858 70.3245 41.8986 69.6068 41.5031C68.889 41.1077 68.2981 40.5199 67.9018 39.8072H67.8406V46.1377H65.1929V29.1285H67.7557V31.2543H67.8044C68.219 30.545 68.8198 29.9603 69.543 29.5624C70.2663 29.1645 71.0848 28.9684 71.9116 28.9948C75.1854 28.9948 77.3434 31.559 77.3434 35.5197ZM74.6219 35.5197C74.6219 32.9321 73.2723 31.2309 71.2132 31.2309C69.1902 31.2309 67.8295 32.9679 67.8295 35.5197C67.8295 38.095 69.1902 39.8196 71.2132 39.8196C73.2723 39.8196 74.6219 38.1308 74.6219 35.5197Z" fill="white"/>
<path d="M91.5406 35.5197C91.5406 39.4915 89.3952 42.0433 86.1576 42.0433C85.3374 42.0858 84.5218 41.8986 83.804 41.5031C83.0863 41.1077 82.4954 40.5199 82.0991 39.8072H82.0378V46.1377H79.3901V29.1285H81.9529V31.2543H82.0016C82.4162 30.545 83.017 29.9603 83.7403 29.5624C84.4635 29.1645 85.2821 28.9684 86.1089 28.9948C89.3827 28.9948 91.5406 31.559 91.5406 35.5197ZM88.8192 35.5197C88.8192 32.9321 87.4696 31.2309 85.4104 31.2309C83.3875 31.2309 82.0267 32.9679 82.0267 35.5197C82.0267 38.095 83.3875 39.8196 85.4104 39.8196C87.4696 39.8196 88.8192 38.1308 88.8192 35.5197Z" fill="white"/>
<path d="M100.923 37.0284C101.12 38.7668 102.824 39.9082 105.153 39.9082C107.385 39.9082 108.99 38.7667 108.99 37.1993C108.99 35.8386 108.022 35.0238 105.729 34.4655L103.436 33.9182C100.187 33.1406 98.6791 31.6352 98.6791 29.1923C98.6791 26.1677 101.339 24.0901 105.117 24.0901C108.855 24.0901 111.418 26.1677 111.505 29.1923H108.832C108.672 27.4429 107.212 26.3869 105.079 26.3869C102.946 26.3869 101.487 27.4553 101.487 29.0103C101.487 30.2497 102.419 30.979 104.7 31.5373L106.649 32.0115C110.279 32.8621 111.787 34.3069 111.787 36.8711C111.787 40.1508 109.15 42.2049 104.957 42.2049C101.033 42.2049 98.3841 40.199 98.2129 37.0282L100.923 37.0284Z" fill="white"/>
<path d="M117.501 26.1057V29.1304H119.954V31.2079H117.501V38.254C117.501 39.3486 117.992 39.8587 119.07 39.8587C119.362 39.8537 119.652 39.8334 119.941 39.798V41.8631C119.457 41.9529 118.964 41.9935 118.471 41.9845C115.859 41.9845 114.841 41.0125 114.841 38.5338V31.2079H112.965V29.1304H114.841V26.1057H117.501Z" fill="white"/>
<path d="M121.375 35.5252C121.375 31.5038 123.765 28.9768 127.492 28.9768C131.232 28.9768 133.611 31.5037 133.611 35.5252C133.611 39.5576 131.245 42.0736 127.492 42.0736C123.741 42.0736 121.375 39.5576 121.375 35.5252ZM130.914 35.5252C130.914 32.7666 129.638 31.1385 127.492 31.1385C125.347 31.1385 124.073 32.779 124.073 35.5252C124.073 38.2948 125.347 39.9105 127.492 39.9105C129.638 39.9105 130.914 38.2948 130.914 35.5252Z" fill="white"/>
<path d="M135.794 29.1284H138.32V31.3038H138.381C138.552 30.6244 138.954 30.024 139.519 29.6034C140.084 29.1829 140.777 28.9679 141.484 28.9947C141.789 28.9936 142.093 29.0264 142.391 29.0926V31.5465C142.006 31.4298 141.604 31.3763 141.201 31.3879C140.816 31.3725 140.433 31.4397 140.077 31.5849C139.721 31.7302 139.401 31.95 139.139 32.2294C138.877 32.5087 138.679 32.841 138.559 33.2033C138.438 33.5657 138.399 33.9495 138.442 34.3285V41.9094H135.794V29.1284Z" fill="white"/>
<path d="M154.598 38.1611C154.242 40.4813 151.962 42.0736 149.044 42.0736C145.292 42.0736 142.963 39.5824 142.963 35.5858C142.963 31.5769 145.304 28.9768 148.933 28.9768C152.502 28.9768 154.746 31.4059 154.746 35.2812V36.18H145.635V36.3386C145.593 36.8089 145.653 37.2828 145.81 37.7287C145.967 38.1745 146.218 38.5822 146.546 38.9246C146.874 39.267 147.272 39.5363 147.713 39.7146C148.155 39.8929 148.629 39.9761 149.105 39.9588C149.731 40.0169 150.359 39.8733 150.896 39.5494C151.432 39.2255 151.849 38.7386 152.084 38.1611H154.598ZM145.648 34.3465H152.097C152.12 33.9235 152.056 33.5003 151.907 33.1033C151.757 32.7063 151.527 32.3442 151.23 32.0396C150.933 31.735 150.576 31.4945 150.18 31.3333C149.785 31.1721 149.36 31.0935 148.933 31.1026C148.502 31.1001 148.074 31.1822 147.675 31.3441C147.276 31.5061 146.914 31.7448 146.608 32.0464C146.303 32.348 146.061 32.7065 145.896 33.1013C145.731 33.4961 145.647 33.9193 145.648 34.3465Z" fill="white"/>
<path d="M52.6473 11.1895C53.2024 11.15 53.7594 11.2331 54.2782 11.4328C54.7969 11.6324 55.2645 11.9437 55.6472 12.3441C56.0298 12.7445 56.318 13.224 56.491 13.7481C56.664 14.2723 56.7174 14.8279 56.6474 15.3749C56.6474 18.066 55.1795 19.6128 52.6473 19.6128H49.5767V11.1895H52.6473ZM50.897 18.4216H52.4998C52.8965 18.4451 53.2934 18.3806 53.6618 18.233C54.0301 18.0853 54.3606 17.8581 54.6291 17.5679C54.8977 17.2777 55.0975 16.9318 55.2142 16.5554C55.3308 16.179 55.3613 15.7816 55.3033 15.3921C55.3571 15.0041 55.3235 14.6092 55.2051 14.2356C55.0867 13.8619 54.8863 13.5189 54.6184 13.231C54.3504 12.9431 54.0216 12.7175 53.6553 12.5704C53.289 12.4232 52.8944 12.3582 52.4998 12.3799H50.897V18.4216Z" fill="white"/>
<path d="M58.1393 16.4234C58.099 16.0057 58.1472 15.5842 58.2809 15.186C58.4146 14.7878 58.6308 14.4217 58.9157 14.1111C59.2005 13.8006 59.5478 13.5524 59.9351 13.3827C60.3224 13.2129 60.7412 13.1252 61.1648 13.1252C61.5883 13.1252 62.0071 13.2129 62.3944 13.3827C62.7817 13.5524 63.129 13.8006 63.4138 14.1111C63.6987 14.4217 63.9149 14.7878 64.0486 15.186C64.1823 15.5842 64.2305 16.0057 64.1902 16.4234C64.2313 16.8416 64.1836 17.2636 64.0503 17.6625C63.9169 18.0613 63.7009 18.4281 63.4159 18.7393C63.131 19.0504 62.7835 19.2991 62.3958 19.4692C62.0081 19.6394 61.5888 19.7273 61.1648 19.7273C60.7407 19.7273 60.3214 19.6394 59.9337 19.4692C59.546 19.2991 59.1985 19.0504 58.9136 18.7393C58.6286 18.4281 58.4126 18.0613 58.2792 17.6625C58.1459 17.2636 58.0982 16.8416 58.1393 16.4234ZM62.8879 16.4234C62.8879 15.0455 62.2632 14.2397 61.1668 14.2397C60.0663 14.2397 59.4472 15.0455 59.4472 16.4234C59.4472 17.8124 60.0663 18.6119 61.1668 18.6119C62.2632 18.6119 62.8879 17.8068 62.8879 16.4234Z" fill="white"/>
<path d="M72.2331 19.6109H70.9197L69.5938 14.9292H69.4936L68.1732 19.6109H66.8723L65.104 13.2542H66.3882L67.5374 18.1047H67.632L68.951 13.2542H70.1656L71.4846 18.1047H71.5848L72.7284 13.2542H73.9945L72.2331 19.6109Z" fill="white"/>
<path d="M75.4819 13.2542H76.7007V14.264H76.7953C76.9558 13.9013 77.2265 13.5973 77.5697 13.3943C77.9129 13.1913 78.3114 13.0994 78.7098 13.1315C79.0219 13.1083 79.3354 13.1549 79.6269 13.268C79.9184 13.381 80.1804 13.5576 80.3937 13.7847C80.6069 14.0118 80.7659 14.2835 80.8588 14.5797C80.9517 14.8759 80.9761 15.189 80.9303 15.4958V19.6109H79.6642V15.8108C79.6642 14.7893 79.2162 14.2813 78.2799 14.2813C78.0679 14.2715 77.8563 14.3072 77.6597 14.3861C77.463 14.4649 77.2858 14.5849 77.1403 14.7379C76.9948 14.8909 76.8844 15.0733 76.8167 15.2725C76.749 15.4717 76.7255 15.6831 76.748 15.8922V19.611H75.4819V13.2542Z" fill="white"/>
<path d="M82.9482 10.7698H84.2143V19.608H82.9482V10.7698Z" fill="white"/>
<path d="M85.9738 16.4235C85.9335 16.0057 85.9818 15.5842 86.1155 15.186C86.2492 14.7878 86.4655 14.4217 86.7503 14.1111C87.0352 13.8006 87.3825 13.5525 87.7698 13.3827C88.1572 13.2129 88.576 13.1252 88.9996 13.1252C89.4231 13.1252 89.842 13.2129 90.2293 13.3827C90.6167 13.5525 90.9639 13.8006 91.2488 14.1111C91.5337 14.4217 91.75 14.7878 91.8837 15.186C92.0174 15.5842 92.0657 16.0057 92.0254 16.4235C92.0664 16.8417 92.0187 17.2638 91.8853 17.6626C91.7519 18.0615 91.5358 18.4282 91.2509 18.7394C90.9659 19.0505 90.6184 19.2992 90.2307 19.4693C89.843 19.6395 89.4236 19.7274 88.9996 19.7274C88.5755 19.7274 88.1562 19.6395 87.7685 19.4693C87.3808 19.2992 87.0333 19.0505 86.7483 18.7394C86.4633 18.4282 86.2472 18.0615 86.1138 17.6626C85.9804 17.2638 85.9327 16.8417 85.9738 16.4235ZM90.7224 16.4235C90.7224 15.0456 90.0977 14.2398 89.0013 14.2398C87.9008 14.2398 87.2817 15.0456 87.2817 16.4235C87.2817 17.8125 87.9008 18.6121 89.0013 18.6121C90.0977 18.612 90.7224 17.8069 90.7224 16.4235Z" fill="white"/>
<path d="M93.3584 17.8069C93.3584 16.6626 94.2182 16.003 95.7445 15.9092L97.4823 15.81V15.2613C97.4823 14.5899 97.0343 14.2108 96.1689 14.2108C95.4621 14.2108 94.9723 14.4679 94.8318 14.9173H93.6061C93.7354 13.8255 94.772 13.1252 96.2273 13.1252C97.8357 13.1252 98.7428 13.9185 98.7428 15.2613V19.6046H97.524V18.7113H97.4239C97.2205 19.0317 96.935 19.2929 96.5965 19.4683C96.2579 19.6436 95.8785 19.7268 95.4969 19.7093C95.2275 19.7371 94.9553 19.7086 94.6978 19.6257C94.4403 19.5429 94.2031 19.4075 94.0016 19.2282C93.8002 19.049 93.6388 18.8299 93.528 18.5851C93.4172 18.3403 93.3595 18.0752 93.3584 17.8069ZM97.4823 17.2637V16.7323L95.9157 16.8315C95.0322 16.8901 94.6315 17.1879 94.6315 17.7483C94.6315 18.3204 95.1323 18.6533 95.8211 18.6533C96.0229 18.6736 96.2267 18.6534 96.4205 18.594C96.6143 18.5346 96.794 18.4371 96.949 18.3075C97.104 18.1778 97.2311 18.0186 97.3227 17.8393C97.4143 17.66 97.4686 17.4642 97.4823 17.2637Z" fill="white"/>
<path d="M100.407 16.4269C100.407 14.4183 101.449 13.1458 103.07 13.1458C103.471 13.1275 103.869 13.2227 104.217 13.4202C104.565 13.6177 104.85 13.9093 105.037 14.2611H105.132V10.7698H106.398V19.608H105.185V18.6037H105.084C104.883 18.9531 104.588 19.2411 104.233 19.4366C103.878 19.6321 103.476 19.7276 103.07 19.7128C101.438 19.7128 100.407 18.4404 100.407 16.4269ZM101.715 16.4269C101.715 17.7752 102.356 18.5865 103.429 18.5865C104.496 18.5865 105.155 17.7635 105.155 16.4324C105.155 15.1076 104.489 14.2728 103.429 14.2728C102.363 14.2728 101.715 15.0897 101.715 16.4269Z" fill="white"/>
<path d="M111.636 16.4234C111.596 16.0057 111.644 15.5842 111.777 15.186C111.911 14.7878 112.127 14.4217 112.412 14.1111C112.697 13.8006 113.044 13.5524 113.432 13.3827C113.819 13.2129 114.238 13.1252 114.661 13.1252C115.085 13.1252 115.504 13.2129 115.891 13.3827C116.278 13.5524 116.626 13.8006 116.91 14.1111C117.195 14.4217 117.411 14.7878 117.545 15.186C117.679 15.5842 117.727 16.0057 117.687 16.4234C117.728 16.8416 117.68 17.2636 117.547 17.6625C117.414 18.0613 117.197 18.4281 116.913 18.7393C116.628 19.0504 116.28 19.2991 115.892 19.4692C115.505 19.6394 115.085 19.7273 114.661 19.7273C114.237 19.7273 113.818 19.6394 113.43 19.4692C113.043 19.2991 112.695 19.0504 112.41 18.7393C112.125 18.4281 111.909 18.0613 111.776 17.6625C111.642 17.2636 111.595 16.8416 111.636 16.4234ZM116.384 16.4234C116.384 15.0455 115.76 14.2397 114.663 14.2397C113.563 14.2397 112.944 15.0455 112.944 16.4234C112.944 17.8124 113.563 18.6119 114.663 18.6119C115.76 18.6119 116.384 17.8068 116.384 16.4234Z" fill="white"/>
<path d="M119.385 13.2542H120.604V14.264H120.699C120.859 13.9013 121.13 13.5973 121.473 13.3943C121.816 13.1913 122.215 13.0994 122.613 13.1315C122.926 13.1083 123.239 13.1549 123.53 13.268C123.822 13.381 124.084 13.5576 124.297 13.7847C124.511 14.0118 124.67 14.2835 124.762 14.5797C124.855 14.8759 124.88 15.189 124.834 15.4958V19.6109H123.568V15.8108C123.568 14.7893 123.12 14.2813 122.183 14.2813C121.972 14.2715 121.76 14.3072 121.563 14.3861C121.367 14.4649 121.189 14.5849 121.044 14.7379C120.898 14.8909 120.788 15.0733 120.72 15.2725C120.653 15.4717 120.629 15.6831 120.652 15.8922V19.611H119.385V13.2542Z" fill="white"/>
<path d="M131.989 11.6721V13.2837H133.379V14.3404H131.989V17.6091C131.989 18.275 132.266 18.5665 132.896 18.5665C133.057 18.566 133.219 18.5564 133.379 18.5376V19.5826C133.151 19.6229 132.921 19.6443 132.69 19.6467C131.282 19.6467 130.721 19.1559 130.721 17.9303V14.3404H129.703V13.2837H130.721V11.6721H131.989Z" fill="white"/>
<path d="M135.108 10.7698H136.363V14.2728H136.463C136.631 13.9067 136.909 13.601 137.259 13.3972C137.609 13.1934 138.014 13.1016 138.419 13.1341C138.729 13.1174 139.04 13.1687 139.328 13.2845C139.616 13.4004 139.875 13.5778 140.086 13.8041C140.297 14.0305 140.455 14.3002 140.549 14.594C140.643 14.8878 140.67 15.1985 140.628 15.5039V19.608H139.361V15.8134C139.361 14.7981 138.884 14.2838 137.989 14.2838C137.772 14.2662 137.553 14.2958 137.348 14.3707C137.143 14.4456 136.957 14.5639 136.803 14.7174C136.649 14.8709 136.531 15.0559 136.457 15.2594C136.383 15.4629 136.354 15.6799 136.374 15.8954V19.608H135.108V10.7698Z" fill="white"/>
<path d="M148.011 17.8884C147.839 18.4694 147.466 18.9719 146.958 19.3081C146.45 19.6443 145.838 19.7928 145.231 19.7275C144.808 19.7385 144.388 19.6583 144 19.4924C143.612 19.3265 143.265 19.0789 142.983 18.7667C142.701 18.4545 142.491 18.0853 142.367 17.6846C142.244 17.2839 142.21 16.8614 142.267 16.4464C142.211 16.0301 142.246 15.6067 142.369 15.2049C142.492 14.803 142.701 14.432 142.982 14.1171C143.262 13.8022 143.608 13.5507 143.995 13.3796C144.382 13.2085 144.801 13.1218 145.225 13.1254C147.01 13.1254 148.087 14.3338 148.087 16.3299V16.7677H143.557V16.838C143.537 17.0712 143.567 17.306 143.644 17.5273C143.721 17.7486 143.844 17.9515 144.005 18.1229C144.166 18.2944 144.361 18.4306 144.578 18.523C144.795 18.6153 145.029 18.6616 145.266 18.659C145.569 18.6951 145.875 18.641 146.147 18.5038C146.419 18.3666 146.643 18.1524 146.792 17.8884H148.011ZM143.557 15.8398H146.797C146.813 15.6265 146.784 15.4122 146.712 15.2107C146.639 15.0092 146.525 14.825 146.376 14.67C146.227 14.5149 146.047 14.3923 145.848 14.3102C145.649 14.2281 145.434 14.1882 145.218 14.1931C144.999 14.1904 144.782 14.2311 144.579 14.3129C144.376 14.3947 144.192 14.5159 144.037 14.6694C143.882 14.8229 143.76 15.0055 143.678 15.2065C143.595 15.4075 143.554 15.6229 143.557 15.8398Z" fill="white"/>
</g>
</g>
</g>
<defs>
<clipPath id="clip0_35_1900">
<rect y="0.0900879" width="168" height="54" rx="10" fill="white"/>
</clipPath>
<clipPath id="clip1_35_1900">
<rect width="168" height="54" fill="white" transform="translate(0 0.0900879)"/>
</clipPath>
<clipPath id="clip2_35_1900">
<rect width="168" height="54" fill="white" transform="translate(0 0.0900879)"/>
</clipPath>
</defs>
</svg>
