<svg width="88" height="89" viewBox="0 0 88 89" fill="none" xmlns="http://www.w3.org/2000/svg">
<g opacity="0.7">
<path d="M30.6538 52.23V42.301H30.8307L38.0581 52.23H40.3324V37.6491H37.8053V47.5531H37.6284L30.4011 37.6491H28.1268V52.23H30.6538ZM47.4839 52.4551C50.8196 52.4551 52.8665 50.3042 52.8665 46.7027C52.8665 43.1263 50.8196 40.9504 47.4839 40.9504C44.1735 40.9504 42.1014 43.1263 42.1014 46.7027C42.1267 50.3042 44.1482 52.4551 47.4839 52.4551ZM47.4839 50.3542C45.715 50.3542 44.7042 49.0287 44.7042 46.7027C44.7042 44.4018 45.715 43.0512 47.4839 43.0512C49.2529 43.0512 50.2637 44.4018 50.2637 46.7027C50.2637 49.0287 49.2529 50.3542 47.4839 50.3542ZM55.1662 38.4744V41.2505H53.3973V43.2514H55.1662V49.2788C55.1662 51.4296 56.177 52.28 58.7546 52.28C59.2348 52.28 59.7149 52.23 60.0939 52.1549V50.2042C59.7907 50.2292 59.5885 50.2542 59.2348 50.2542C58.1733 50.2542 57.6932 49.779 57.6932 48.6785V43.2514H60.0939V41.2505H57.6932V38.4744H55.1662ZM61.6102 52.23H64.1372V41.1755H61.6102V52.23ZM62.8737 39.3498C63.7076 39.3498 64.3899 38.6745 64.3899 37.8492C64.3899 36.9988 63.7076 36.3235 62.8737 36.3235C62.0398 36.3235 61.3575 36.9988 61.3575 37.8492C61.3575 38.6745 62.0398 39.3498 62.8737 39.3498ZM71.0614 52.4551C74.3971 52.4551 76.444 50.3042 76.444 46.7027C76.444 43.1263 74.3971 40.9504 71.0614 40.9504C67.7509 40.9504 65.6787 43.1263 65.6787 46.7027C65.6787 50.3042 67.7004 52.4551 71.0614 52.4551ZM71.0614 50.3542C69.2925 50.3542 68.2816 49.0287 68.2816 46.7027C68.2816 44.4018 69.2925 43.0512 71.0614 43.0512C72.805 43.0512 73.8411 44.4018 73.8411 46.7027C73.8159 49.0287 72.805 50.3542 71.0614 50.3542ZM77.935 52.23H80.462V45.8024C80.462 44.1767 81.4222 43.1513 82.9132 43.1513C84.4548 43.1513 85.1623 44.0016 85.1623 45.6773V52.23H87.6894V45.0771C87.6894 42.426 86.3247 40.9504 83.8483 40.9504C82.1804 40.9504 81.0685 41.7007 80.5378 42.9513H80.3609V41.1755H77.9097C77.935 41.1755 77.935 52.23 77.935 52.23Z" fill="black"/>
<path fill-rule="evenodd" clip-rule="evenodd" d="M3.8966 36.7159C4.63209 37.3092 4.89813 37.2624 6.27524 37.1687L19.2483 36.388C19.53 36.388 19.2952 36.1069 19.2013 36.0757L17.0417 34.5298C16.6349 34.2176 16.0715 33.8428 15.023 33.9365L2.47253 34.8577C2.01872 34.9046 1.92483 35.1388 2.11261 35.3106L3.8966 36.7159ZM4.67904 39.7295V53.3453C4.67904 54.0792 5.03897 54.3446 5.86837 54.2978L20.1246 53.4703C20.954 53.4234 21.0479 52.9237 21.0479 52.3303V38.8082C21.0479 38.2149 20.8131 37.887 20.3123 37.9338L5.41455 38.8082C4.86683 38.8551 4.67904 39.1361 4.67904 39.7295ZM18.7475 40.4633C18.8414 40.8694 18.7475 41.291 18.3406 41.3377L17.6521 41.4783V51.5341C17.0574 51.8463 16.5097 52.0337 16.0403 52.0337C15.3047 52.0337 15.1169 51.7995 14.5692 51.1125L10.0779 44.0703V50.8782L11.502 51.1905C11.502 51.1905 11.502 52.018 10.3596 52.018L7.19853 52.2055C7.10464 52.0181 7.19853 51.5653 7.51151 51.4716L8.34091 51.2374V42.2434L7.19853 42.1497C7.10464 41.7437 7.33937 41.1504 7.98098 41.1036L11.3768 40.8694L16.0558 47.9896V41.6969L14.8666 41.5564C14.7726 41.0567 15.1482 40.6819 15.602 40.6351L18.7475 40.4633ZM1.42405 33.6086L14.4909 32.6561C16.0871 32.5156 16.5097 32.6093 17.5112 33.3431L21.6738 36.2631C22.3624 36.7627 22.5972 36.9032 22.5972 37.4498V53.4858C22.5972 54.4852 22.2372 55.0785 20.954 55.1722L5.79012 56.0935C4.81988 56.1403 4.36607 55.9997 3.8653 55.3596L0.782449 51.3779C0.234735 50.644 0 50.0975 0 49.4574V35.2013C0 34.3737 0.375576 33.7023 1.42405 33.6086Z" fill="black"/>
</g>
</svg>
