<svg width="180" height="55" viewBox="0 0 180 55" fill="none" xmlns="http://www.w3.org/2000/svg">
<g clip-path="url(#clip0_35_1927)">
<g clip-path="url(#clip1_35_1927)">
<g clip-path="url(#clip2_35_1927)">
<path d="M173.333 54.0901H6.66718C2.99912 54.0901 0 51.0536 0 47.3397V6.84044C0 3.12662 2.99912 0.0900879 6.66718 0.0900879H173.333C176.998 0.0900879 180 3.12662 180 6.84044V47.3397C179.997 51.0536 176.998 54.0901 173.333 54.0901Z" fill="#100F0D"/>
<path d="M27.6215 26.3093L13.4258 41.5653C13.4258 41.5682 13.4286 41.571 13.4286 41.5738C13.8634 43.2303 15.3574 44.4495 17.1329 44.4495C17.8409 44.4495 18.507 44.2548 19.0784 43.9161L19.123 43.8879L35.1025 34.5525L27.6215 26.3093Z" fill="#D8432B"/>
<path d="M41.9822 23.7153L41.9683 23.7069L35.0697 19.6572L27.2988 26.6587L35.0976 34.5548L41.9599 30.5447C43.164 29.8872 43.9807 28.6031 43.9807 27.1216C43.9807 25.6513 43.1752 24.3757 41.9822 23.7153Z" fill="#FBC81D"/>
<path d="M13.4264 12.6191C13.34 12.938 13.2954 13.271 13.2954 13.6181V40.5716C13.2954 40.9187 13.34 41.2517 13.4264 41.5706L28.1098 26.7068L13.4264 12.6191Z" fill="#3371C1"/>
<path d="M27.7279 27.0939L35.0752 19.6578L19.1152 10.2886C18.5355 9.93586 17.8581 9.73267 17.1335 9.73267C15.3607 9.73267 13.864 10.9546 13.4292 12.6139V12.6168L27.7279 27.0939Z" fill="#32A472"/>
<path d="M63.2236 13.9139C63.2236 15.0455 62.8919 15.9457 62.2313 16.6174C61.4788 17.416 60.4976 17.8168 59.2935 17.8168C58.1396 17.8168 57.1557 17.4132 56.3502 16.6005C55.5419 15.7905 55.1377 14.7859 55.1377 13.5865C55.1377 12.3871 55.5419 11.3825 56.3502 10.5726C57.1585 9.76257 58.1396 9.3562 59.2935 9.3562C59.8677 9.3562 60.414 9.46908 60.9352 9.69485C61.4565 9.92061 61.8746 10.2226 62.1867 10.6008L61.4843 11.3119C60.9548 10.6713 60.2245 10.3496 59.2935 10.3496C58.4518 10.3496 57.7243 10.6487 57.1083 11.2498C56.4923 11.8509 56.1857 12.627 56.1857 13.5865C56.1857 14.5432 56.4923 15.3221 57.1083 15.9232C57.7243 16.5243 58.4518 16.8234 59.2935 16.8234C60.1882 16.8234 60.9325 16.5214 61.5289 15.9175C61.9164 15.5253 62.1393 14.9778 62.2007 14.2779H59.2963V13.3043H63.1734C63.2041 13.5131 63.2236 13.7163 63.2236 13.9139Z" fill="white"/>
<path d="M69.3696 10.5388H65.7266V13.1068H69.01V14.0804H65.7238V16.6485H69.3668V17.6447H64.6953V9.54541H69.3668V10.5388" fill="white"/>
<path d="M73.7038 17.6408H72.6753V10.5377H70.4399V9.5415H75.9365V10.5377H73.7011L73.7038 17.6408Z" fill="white"/>
<path d="M79.917 17.6408V9.5415H80.9455V17.6408H79.917Z" fill="white"/>
<path d="M85.5022 17.6408H84.4737V10.5377H82.2383V9.5415H87.7348V10.5377H85.4994L85.5022 17.6408Z" fill="white"/>
<path d="M93.0367 15.9091C93.6304 16.5158 94.3523 16.8206 95.2108 16.8206C96.0665 16.8206 96.794 16.5186 97.3849 15.9091C97.9786 15.3023 98.274 14.5262 98.274 13.5837C98.274 12.6411 97.9758 11.8651 97.3849 11.2583C96.794 10.6516 96.0693 10.3468 95.2108 10.3468C94.3551 10.3468 93.6304 10.6487 93.0367 11.2583C92.4458 11.8651 92.1476 12.6411 92.1476 13.5837C92.1476 14.5262 92.4458 15.3023 93.0367 15.9091ZM98.1458 16.5892C97.3598 17.4076 96.3815 17.8168 95.2108 17.8168C94.0429 17.8168 93.0646 17.4076 92.2786 16.5892C91.4926 15.7708 91.0996 14.7689 91.0996 13.5865C91.0996 12.4041 91.4926 11.4022 92.2786 10.5838C93.0646 9.7654 94.0429 9.3562 95.2108 9.3562C96.3731 9.3562 97.3487 9.76822 98.1402 10.5895C98.929 11.4107 99.3248 12.4097 99.3248 13.5865C99.3221 14.7689 98.929 15.7708 98.1458 16.5892Z" fill="white"/>
<path d="M100.766 17.6421V9.54272H102.017L105.905 15.8444H105.95L105.905 14.2838V9.54554H106.934V17.6449H105.861L101.794 11.0385H101.75L101.794 12.5991V17.6449L100.766 17.6421Z" fill="white"/>
<path d="M142.58 40.5922H145.067V23.7163H142.58V40.5922ZM164.99 29.795L162.136 37.1098H162.05L159.09 29.7922H156.408L160.851 40.0193L158.32 45.7086H160.915L167.755 29.795H164.99ZM150.878 38.6732C150.064 38.6732 148.927 38.2612 148.927 37.2396C148.927 35.9358 150.343 35.4363 151.564 35.4363C152.657 35.4363 153.172 35.6762 153.836 36.0007C153.646 37.5669 152.316 38.6732 150.878 38.6732ZM151.179 29.4253C149.379 29.4253 147.511 30.2296 146.739 32.0103L148.949 32.9444C149.42 32.0103 150.301 31.7084 151.221 31.7084C152.509 31.7084 153.816 32.4901 153.838 33.8785V34.0535C153.387 33.7939 152.422 33.4016 151.243 33.4016C148.863 33.4016 146.441 34.7251 146.441 37.2001C146.441 39.4577 148.392 40.9139 150.58 40.9139C152.252 40.9139 153.175 40.1548 153.755 39.263H153.841V40.5668H156.244V34.0958C156.241 31.096 154.031 29.4253 151.179 29.4253ZM135.805 31.8495H132.268V26.0643H135.805C137.664 26.0643 138.72 27.6248 138.72 28.9569C138.72 30.2635 137.664 31.8495 135.805 31.8495ZM135.74 23.7135H129.778V40.5894H132.268V34.1946H135.74C138.5 34.1946 141.209 32.174 141.209 28.954C141.209 25.7341 138.497 23.7135 135.74 23.7135ZM103.232 38.6788C101.515 38.6788 100.074 37.2227 100.074 35.2218C100.074 33.1984 101.513 31.7196 103.232 31.7196C104.93 31.7196 106.262 33.1984 106.262 35.2218C106.259 37.2198 104.927 38.6788 103.232 38.6788ZM106.089 30.7404H106.003C105.445 30.0659 104.37 29.4564 103.018 29.4564C100.183 29.4564 97.5826 31.9793 97.5826 35.219C97.5826 38.439 100.183 40.9393 103.018 40.9393C104.372 40.9393 105.445 40.3297 106.003 39.6355H106.089V40.4624C106.089 42.6579 104.93 43.8347 103.06 43.8347C101.535 43.8347 100.59 42.7257 100.203 41.7916L98.0341 42.7059C98.6585 44.227 100.311 46.098 103.06 46.098C105.981 46.098 108.45 44.3596 108.45 40.1181V29.8091H106.087V30.7404H106.089ZM110.17 40.5922H112.662V23.7163H110.17V40.5922ZM116.335 35.0243C116.271 32.8061 118.033 31.6745 119.301 31.6745C120.291 31.6745 121.127 32.174 121.405 32.8936L116.335 35.0243ZM124.067 33.1109C123.593 31.8269 122.155 29.4564 119.212 29.4564C116.291 29.4564 113.863 31.7846 113.863 35.1964C113.863 38.4164 116.269 40.9393 119.491 40.9393C122.091 40.9393 123.594 39.3307 124.215 38.3938L122.281 37.09C121.637 38.0467 120.756 38.6788 119.488 38.6788C118.22 38.6788 117.319 38.0918 116.74 36.9376L124.321 33.7628L124.067 33.1109ZM63.6558 31.2173V33.6528H69.4115C69.2387 35.0215 68.7899 36.0233 68.1015 36.7203C67.2625 37.5698 65.9525 38.5039 63.6558 38.5039C60.1103 38.5039 57.3398 35.6113 57.3398 32.0244C57.3398 28.4348 60.1103 25.5422 63.6558 25.5422C65.5678 25.5422 66.9643 26.3041 67.9956 27.2834L69.693 25.5647C68.2548 24.1735 66.3427 23.1067 63.6558 23.1067C58.8003 23.1067 54.7197 27.1084 54.7197 32.0244C54.7197 36.9404 58.8003 40.9421 63.6558 40.9421C66.2758 40.9421 68.252 40.0729 69.7989 38.4418C71.3877 36.8332 71.8838 34.5699 71.8838 32.7441C71.8838 32.1796 71.842 31.6576 71.7556 31.223H63.6558V31.2173ZM78.4284 38.6788C76.7086 38.6788 75.2286 37.2424 75.2286 35.1992C75.2286 33.1335 76.7114 31.7196 78.4284 31.7196C80.1453 31.7196 81.6282 33.1335 81.6282 35.1992C81.6282 37.2424 80.1481 38.6788 78.4284 38.6788ZM78.4284 29.4564C75.2927 29.4564 72.7367 31.8692 72.7367 35.1964C72.7367 38.501 75.2927 40.9393 78.4284 40.9393C81.5641 40.9393 84.12 38.5039 84.12 35.1964C84.12 31.8692 81.5641 29.4564 78.4284 29.4564ZM90.8457 38.6788C89.1259 38.6788 87.6459 37.2424 87.6459 35.1992C87.6459 33.1335 89.1287 31.7196 90.8457 31.7196C92.5627 31.7196 94.0455 33.1335 94.0455 35.1992C94.0455 37.2424 92.5655 38.6788 90.8457 38.6788ZM90.8457 29.4564C87.71 29.4564 85.1541 31.8692 85.1541 35.1964C85.1541 38.501 87.71 40.9393 90.8457 40.9393C93.9814 40.9393 96.5373 38.5039 96.5373 35.1964C96.5373 31.8692 93.9814 29.4564 90.8457 29.4564Z" fill="white"/>
</g>
</g>
</g>
<defs>
<clipPath id="clip0_35_1927">
<rect y="0.0900879" width="180" height="54" rx="10" fill="white"/>
</clipPath>
<clipPath id="clip1_35_1927">
<rect width="180" height="54" fill="white" transform="translate(0 0.0900879)"/>
</clipPath>
<clipPath id="clip2_35_1927">
<rect width="180" height="54" fill="white" transform="translate(0 0.0900879)"/>
</clipPath>
</defs>
</svg>
