<svg width="270" height="231" viewBox="0 0 270 231" fill="none" xmlns="http://www.w3.org/2000/svg">
<g clip-path="url(#clip0_14_1033)">
<path fill-rule="evenodd" clip-rule="evenodd" d="M149.574 104.676C148.964 102.474 148.314 100.221 146.961 98.3807C143.093 93.1146 134.252 95.5857 130.971 100.315C122.722 112.203 129.196 130.642 133.495 142.785C134.733 146.283 136.519 150.047 139.974 151.381C145.229 153.412 150.159 148.747 151.848 144.17C154.024 138.275 154.308 131.593 153.788 125.391C153.55 122.548 153.124 119.731 152.575 116.933C151.767 112.81 150.695 108.728 149.574 104.676Z" fill="#FFFFFE"/>
<path fill-rule="evenodd" clip-rule="evenodd" d="M131.27 84.8106C131.344 84.4115 131.408 84.0089 131.467 83.6098C132.047 79.6105 132.592 74.6089 128.248 73.3454C125.384 72.5118 120.366 72.8824 118.456 70.214C117.842 69.3565 117.668 68.2708 117.511 67.2285C117.287 65.7404 117.063 64.2511 116.839 62.7618C125.166 64.1952 128.639 56.7247 129.69 49.7377C130.763 42.6093 130.539 33.71 124.272 28.9353C120.278 25.8905 114.683 25.1641 109.99 26.9419C105.295 28.7209 101.616 32.898 100.288 37.7468C99.3049 41.3333 100.471 42.6413 100.683 46.3429C100.924 50.5348 100.55 57.7784 100.783 61.9715C100.94 64.7904 100.7 68.0758 99.1751 70.5379C98.4821 71.6554 97.6217 72.6099 96.4382 73.22C95.5812 73.6624 93.3404 73.4241 92.8067 74.0125C89.7568 77.3709 86.906 80.9277 83.592 84.0112C91.4058 87.2943 99.5768 89.6468 107.925 91.0803C113.784 92.0872 125.612 95.5608 129.654 89.3173C130.528 87.9682 130.977 86.4025 131.27 84.8106Z" fill="#FFFFFE"/>
<path fill-rule="evenodd" clip-rule="evenodd" d="M131.27 84.8106C131.344 84.4115 131.408 84.0089 131.467 83.6098C132.047 79.6105 132.592 74.6089 128.248 73.3454C125.384 72.5118 120.366 72.8824 118.456 70.214C117.842 69.3564 117.668 68.2708 117.511 67.2285C117.287 65.7404 117.063 64.2511 116.839 62.7618C125.166 64.1952 128.639 56.7247 129.69 49.7377C130.763 42.6093 130.539 33.71 124.272 28.9353C120.278 25.8905 114.683 25.1641 109.99 26.9419C105.295 28.7209 101.616 32.898 100.288 37.7468C99.3049 41.3333 100.471 42.6413 100.683 46.3429C100.924 50.5348 100.55 57.7784 100.783 61.9715C100.94 64.7904 100.7 68.0758 99.1751 70.5379C98.4821 71.6554 97.6217 72.6099 96.4382 73.22C95.5812 73.6624 93.3404 73.4241 92.8067 74.0125C89.7568 77.3709 86.906 80.9277 83.592 84.0112C91.4058 87.2943 99.5768 89.6468 107.925 91.0803C113.784 92.0872 125.612 95.5607 129.654 89.3173C130.528 87.9682 130.977 86.4025 131.27 84.8106Z" stroke="#000105" stroke-width="0.5"/>
<path fill-rule="evenodd" clip-rule="evenodd" d="M62.049 104.567C62.8844 94.2219 67.507 83.6348 76.9083 78.4622C80.3714 76.5566 84.1667 75.4208 87.9928 74.5085C89.9604 74.0399 91.9417 73.6305 93.914 73.1823C96.1252 72.6805 96.5701 73.204 98.0701 74.8723C101.175 78.3242 106.086 79.858 110.701 79.379C113.625 79.0757 116.429 78.022 118.938 76.5064C120.781 75.3946 121.804 74.415 122.632 72.3213C122.697 72.1594 122.773 71.9804 122.932 71.9074C123.036 71.8595 123.158 71.8675 123.273 71.8766C131.854 72.5813 139.758 75.0069 144.946 82.312C149.435 88.6342 151.155 96.4821 152.329 104.15C153.053 108.876 153.611 113.626 154 118.391C148.136 118.835 142.248 118.979 136.369 118.823C136.11 127.544 135.291 136.242 134.511 144.963C133.974 150.958 133.055 156.849 131.721 162.682C118.16 167.206 102.686 166.103 88.1441 164.79C83.9983 164.414 79.6954 163.992 76.1106 161.873C66.0219 155.908 65.5917 138.287 64.1521 128.028C63.038 120.094 61.3935 112.669 62.049 104.567Z" fill="#E57A74"/>
<path fill-rule="evenodd" clip-rule="evenodd" d="M166.072 207.586C165.896 207.328 165.711 207.073 165.519 206.826C162.006 202.313 155.938 199.37 150.982 196.719C145.512 193.793 139.379 191.384 133.071 191.75C127.383 192.08 119.482 195.946 118.304 201.98C118.172 202.661 118.114 203.391 118.387 204.029C119.064 205.615 121.202 205.756 122.922 205.772C130.267 205.837 137.333 208.101 144.185 210.545C147.717 211.805 151.225 213.13 154.794 214.277C157.984 215.302 165.736 219.795 167.97 215.131C169.191 212.581 167.488 209.672 166.072 207.586Z" fill="#000105"/>
<path fill-rule="evenodd" clip-rule="evenodd" d="M197.92 146.954C194.951 143.661 190.725 141.53 186.389 140.716C180.307 139.575 174.025 140.681 168.058 142.327C155.417 145.815 143.563 151.696 130.856 154.966C125.22 156.417 121.547 155.88 116.04 155.434C109.057 154.869 101.889 155.558 94.8631 155.142C88.2955 154.753 81.1896 154.243 75.0522 156.057C74.2408 155.522 73.4339 154.987 72.6282 154.459C65.7613 149.945 58.9217 145.449 50.3114 147.094C43.5412 148.385 37.0135 151.825 32.8198 157.409C28.3655 163.342 29.7027 171.089 33.6938 177.003C36.9987 181.899 41.8831 185.503 46.9417 188.544C64.3923 199.033 83.4543 205.463 104.047 204.03C106.804 203.838 110.054 203.808 112.038 206.026C112.785 206.86 113.218 211.431 114.875 211.234C116.915 210.991 120.842 210.419 122.769 209.722C133.175 205.955 143.58 202.187 153.986 198.421C163.129 195.112 172.338 191.77 180.668 186.749C187.872 182.406 194.397 176.532 198.222 168.922C200.98 163.436 203.244 156.206 200.364 150.506C199.707 149.204 198.879 148.018 197.92 146.954Z" fill="#35619C"/>
<path d="M68.7634 162.725C74.6129 165.655 80.7378 167.528 86.3415 170.998C91.944 174.469 97.2427 178.51 103.325 181.133C107.272 182.833 112.999 183.498 116.783 185.382" stroke="#000105" stroke-width="0.5"/>
<path fill-rule="evenodd" clip-rule="evenodd" d="M111.887 205.192C111.34 203.924 110.792 202.657 110.245 201.389C109.159 198.874 108.072 196.358 106.985 193.842C104.54 195.072 102.185 196.056 99.3504 195.822C97.8448 195.698 96.3642 195.268 94.8529 195.293C91.8496 195.344 90.5511 197.688 89.3004 200.062C87.0915 204.258 83.1152 207.317 79.8889 210.685C75.8466 214.907 73.5034 218.878 74.1532 224.915C74.3819 227.044 75.2411 229.487 77.2976 230.067C79.1935 230.603 81.0645 229.272 82.5894 228.021C86.7239 224.632 90.8584 221.241 94.9928 217.85C96.8786 216.304 98.7961 214.243 100.941 213.084C102.704 212.129 104.8 211.53 106.473 210.413C107.54 209.962 108.632 209.574 109.742 209.246C110.459 209.035 112.318 208.962 112.835 208.458C113.474 207.833 112.199 205.915 111.909 205.244C111.902 205.227 111.894 205.209 111.887 205.192Z" fill="#000105"/>
<path fill-rule="evenodd" clip-rule="evenodd" d="M122.603 165.479C123.356 165.097 123.93 164.418 124.379 163.132C125.129 160.979 124.689 158.428 123.48 156.531C121.921 154.082 119.051 152.192 116.222 151.597C113.304 150.983 110.472 149.938 107.5 149.335C105.361 148.902 103.258 148.312 101.156 147.721C96.7157 146.475 92.2751 145.229 87.8334 143.982C86.7545 143.678 85.6199 143.445 84.5661 143.064C83.5623 142.701 83.6113 142.798 83.5248 141.828C83.4292 140.743 83.8036 139.573 83.8787 138.488C83.988 136.906 84.0938 135.323 84.1951 133.742C84.392 130.664 84.5752 127.587 84.7425 124.508C85.0702 118.491 84.7357 112.601 83.6705 106.647C81.8826 96.6595 69.9526 90.9246 63.2086 100.459C58.5097 107.104 57.5469 116.114 57.218 124.019C56.855 132.699 57.3603 141.412 60.689 149.564C68.9887 169.89 101.59 167.746 119.274 166.096C120.667 165.965 121.75 165.911 122.603 165.479Z" fill="#FFFFFE"/>
<path fill-rule="evenodd" clip-rule="evenodd" d="M122.603 165.479C123.356 165.097 123.93 164.418 124.379 163.132C125.129 160.979 124.689 158.428 123.48 156.531C121.921 154.082 119.051 152.192 116.222 151.597C113.304 150.983 110.472 149.938 107.5 149.335C105.361 148.902 103.258 148.312 101.156 147.721C96.7157 146.475 92.2751 145.229 87.8334 143.982C86.7545 143.678 85.6199 143.445 84.5661 143.064C83.5623 142.701 83.6113 142.798 83.5248 141.828C83.4292 140.743 83.8036 139.573 83.8787 138.488C83.988 136.906 84.0938 135.323 84.1951 133.742C84.392 130.664 84.5752 127.587 84.7425 124.508C85.0702 118.491 84.7357 112.601 83.6705 106.647C81.8826 96.6595 69.9526 90.9246 63.2086 100.459C58.5097 107.104 57.5469 116.114 57.218 124.019C56.855 132.699 57.3603 141.412 60.689 149.564C68.9887 169.89 101.59 167.746 119.274 166.096C120.667 165.965 121.75 165.911 122.603 165.479Z" stroke="#000105" stroke-width="0.5"/>
<path fill-rule="evenodd" clip-rule="evenodd" d="M117.335 23.3346C124.693 24.0086 131.181 30.5873 133.033 37.531C132.595 37.7134 132.155 37.8947 131.717 38.076C131.113 36.6802 130.344 35.3574 129.434 34.1395C129.476 35.5045 129.696 36.8627 130.085 38.1696C129.233 38.4615 127.825 38.1376 126.902 38.1855C125.531 38.2585 124.161 38.3725 122.796 38.5299C120.238 38.8241 117.696 39.2666 115.188 39.8561C114.959 39.9097 114.7 39.9622 114.5 39.8379C114.371 39.7604 114.291 39.6246 114.217 39.4935C113.577 38.3646 112.933 35.354 111.473 36.2583C110.788 36.6825 110.524 39.8139 110.545 40.6179C110.601 42.6227 111.14 43.7413 109.176 45.0345C107.621 46.0563 106.233 47.281 105.616 49.0543C104.961 50.9347 104.664 52.9976 103.499 54.6705C103.2 55.0993 102.86 55.4939 102.519 55.8884C101.893 56.6149 101.267 57.3413 100.641 58.0665C100.255 57.7757 100.067 57.2991 99.899 56.8475C97.9177 51.506 92.4494 38.5835 98.1566 34.0198C95.4891 36.1511 91.0485 35.4441 89.1741 32.5886C87.2987 29.7332 88.4071 25.3656 91.4161 23.7554C88.3468 22.2114 87.4626 17.5393 89.7545 14.9747C92.0465 12.4111 96.7785 12.7795 98.6471 15.6691C100.937 12.7145 105.417 11.5296 108.661 13.3816C112.959 15.8356 112.276 20.4951 109.894 23.7702C112.389 23.4373 114.797 23.102 117.335 23.3346Z" fill="#000105"/>
<path d="M169.572 152.565C157.857 157.875 148.428 167.097 137.762 174.289C127.802 181.008 116.774 185.943 105.808 190.845C106.38 192.104 106.613 193.345 107.186 194.607" stroke="#000105" stroke-width="0.5"/>
<path d="M119.524 52.358C120.224 54.6478 123.016 56.039 125.26 55.2157" stroke="#121514" stroke-width="0.5"/>
<path fill-rule="evenodd" clip-rule="evenodd" d="M107.704 51.6956C103.385 52.7778 100.697 48.2175 102.009 45.2446C103.835 41.1062 109.628 41.7927 110.688 46.1432" fill="#FFFFFE"/>
<path d="M107.704 51.6956C103.385 52.7778 100.697 48.2175 102.009 45.2446C103.835 41.1062 109.628 41.7927 110.688 46.1432" stroke="#000105" stroke-width="0.5"/>
<path d="M105.492 44.894C106.305 44.6705 107.243 44.805 107.923 45.2441C108.603 45.682 109.006 46.4118 108.968 47.1348" stroke="#121514" stroke-width="0.5"/>
<path fill-rule="evenodd" clip-rule="evenodd" d="M87.2996 97.8119C86.1275 102.494 85.8737 113.329 85.8293 121.567C82.768 121.298 79.7226 120.865 76.7057 120.268C70.1427 118.969 63.7708 116.944 57.5845 114.429C59.4133 102.686 62.8046 91.4373 71.168 82.9712" fill="#E57A74"/>
<path fill-rule="evenodd" clip-rule="evenodd" d="M85.9226 171.93H152.338C153.311 171.93 154.099 171.139 154.099 170.165C154.099 169.191 153.311 168.401 152.338 168.401H85.9226C84.9508 168.401 84.1621 169.191 84.1621 170.165C84.1621 171.139 84.9508 171.93 85.9226 171.93Z" fill="#000105"/>
<path fill-rule="evenodd" clip-rule="evenodd" d="M95.7744 169.537H153.902L165.974 139.662C166.368 138.689 165.653 137.628 164.606 137.628H109.665C109.064 137.628 108.523 137.992 108.297 138.551L95.7744 169.537Z" fill="#000105"/>
<path fill-rule="evenodd" clip-rule="evenodd" d="M136.994 153.601C136.376 155.22 134.291 156.532 132.337 156.532C130.384 156.532 129.301 155.22 129.92 153.601C130.538 151.983 132.622 150.67 134.576 150.67C136.529 150.67 137.612 151.983 136.994 153.601Z" stroke="#FFFFFE" stroke-width="0.5"/>
<path fill-rule="evenodd" clip-rule="evenodd" d="M117.278 62.6022C117.171 63.7141 117.264 64.8362 117.365 65.9492C117.293 65.9298 117.22 65.9138 117.147 65.8909C114.863 65.1816 112.971 63.315 112.014 61.1198C113.624 62.0115 115.441 62.511 117.278 62.6022Z" fill="#000105"/>
<path d="M102.63 215.254C101.957 213.615 100.569 212.286 98.9043 211.684C98.4753 211.529 97.9325 211.445 97.6184 211.777C97.1711 212.249 97.6115 212.998 97.9939 213.523C98.6904 214.479 99.2014 215.569 99.4893 216.717C99.5997 217.158 99.66 217.678 99.3607 218.022C99.0489 218.38 98.4651 218.367 98.0485 218.138C97.632 217.91 97.3339 217.519 97.0175 217.164C96.2402 216.295 95.2831 215.588 94.2259 215.101C94.0336 215.013 93.8173 214.931 93.617 214.997C93.0378 215.192 93.4054 216.057 93.7741 216.546C94.524 217.54 94.8905 218.818 94.7812 220.06M137.836 209.829C138.021 208.77 138.259 207.615 139.096 206.942C139.935 206.27 141.535 206.595 141.614 207.668C141.644 208.102 141.425 208.509 141.338 208.934C141.213 209.545 141.397 210.241 141.888 210.624C142.379 211.009 143.176 210.987 143.572 210.506C144.117 209.844 143.744 208.736 144.299 208.083C144.922 207.35 146.233 207.862 146.627 208.741C147.02 209.621 146.822 210.634 146.717 211.592C146.611 212.55 146.657 213.65 147.372 214.293" stroke="#E46F6D"/>
<path fill-rule="evenodd" clip-rule="evenodd" d="M104.001 49.6712C104.001 50.4136 104.602 51.0157 105.344 51.0157C106.084 51.0157 106.685 50.4136 106.685 49.6712C106.685 48.9288 106.084 48.3267 105.344 48.3267C104.602 48.3267 104.001 48.9288 104.001 49.6712Z" fill="#000105"/>
<path fill-rule="evenodd" clip-rule="evenodd" d="M57.5777 117.319C57.6722 116.764 57.7382 116.202 57.7689 115.64C57.8326 115.243 57.9089 114.851 58.009 114.463C58.4221 114.795 58.8682 115.086 59.3496 115.307C59.8731 115.548 60.4262 115.716 60.9781 115.882C62.6215 116.382 64.2636 116.88 65.907 117.379C66.5488 117.574 67.1633 117.786 67.7449 118.126C67.2066 117.973 66.6239 117.948 66.0617 118.041C65.2833 118.168 64.5345 118.452 63.7504 118.531C63.0721 118.598 62.3859 118.511 61.7042 118.56C60.2805 118.662 58.7681 119.33 57.4878 118.782C57.5128 118.295 57.5413 117.807 57.5777 117.319Z" fill="#000105"/>
<path fill-rule="evenodd" clip-rule="evenodd" d="M61.833 147.936C62.5534 150.379 63.8746 152.642 65.6477 154.468L61.833 147.936Z" fill="#FFFFFE"/>
<path d="M61.833 147.936C62.5534 150.379 63.8746 152.642 65.6477 154.468" stroke="#000105" stroke-width="0.5"/>
<path fill-rule="evenodd" clip-rule="evenodd" d="M66.9939 155.78C67.6301 156.275 68.2651 156.77 68.9012 157.266L66.9939 155.78Z" fill="#FFFFFE"/>
<path d="M66.9939 155.78C67.6301 156.275 68.2651 156.77 68.9012 157.266" stroke="#000105" stroke-width="0.5"/>
<path fill-rule="evenodd" clip-rule="evenodd" d="M66.2588 153.01C66.6173 153.359 66.9758 153.707 67.3331 154.056L66.2588 153.01Z" fill="#FFFFFE"/>
<path d="M66.2584 153.007C66.6169 153.355 66.9755 153.703 67.3328 154.052M60.6458 113.417C62.3403 114.054 64.0348 114.69 65.7293 115.327M65.1182 95.6351C64.2101 97.7003 63.4738 99.8419 62.9207 102.029M62.5679 103.302C62.4199 103.961 62.272 104.619 62.1241 105.279M61.7086 107.049C61.6141 107.498 61.5198 107.945 61.4253 108.393M102.38 59.8541C102.367 61.8622 102.248 63.8704 102.023 65.8672M101.823 67.426C101.704 68.2129 101.534 68.9929 101.316 69.7581M136.359 119.038C136.155 115.884 135.953 112.732 135.749 109.581M135.402 107.51C135.181 106.318 135.091 105.1 135.132 103.889M84.9894 121.699C85.3251 121.612 85.6607 121.525 85.9965 121.437C87.0548 119.841 87.2586 117.847 87.4828 115.944C88.0792 110.901 89.0351 105.902 90.3291 100.992" stroke="#000105" stroke-width="0.5"/>
<path fill-rule="evenodd" clip-rule="evenodd" d="M175.592 174.479C176.499 174.372 177.455 174.409 178.269 174.353C184.027 173.963 189.814 174.588 195.562 174.057C201.383 173.518 207.002 171.685 212.766 170.71C218.022 169.819 223.472 169.656 228.646 170.947C233.821 172.236 238.714 175.072 241.881 179.37C245.443 184.207 246.117 190.781 243.51 196.179C240.812 201.765 234.7 203.898 228.878 204.725C222.985 205.559 217.056 205.378 211.121 205.378C206.04 205.378 200.958 206.035 195.875 205.651C188.539 205.098 181.746 206.941 176.057 200.219C172.024 195.455 169.838 188.372 170.883 181.68C171.189 179.718 171.782 176.573 173.449 175.246C174.041 174.777 174.798 174.572 175.592 174.479Z" fill="#F4B93C"/>
<path fill-rule="evenodd" clip-rule="evenodd" d="M199.264 176.117L198.994 161.67L191.981 166.067C189.508 164.755 186.57 163.991 183.417 163.991C180.255 163.991 177.312 164.759 174.837 166.076L163.728 165.617L167.952 170.056L167.514 177.162C167.514 184.437 174.959 188.381 183.741 188.381C192.523 188.381 199.319 184.437 199.319 177.162C199.319 176.81 199.297 176.461 199.264 176.117Z" fill="#F4B93C"/>
<path fill-rule="evenodd" clip-rule="evenodd" d="M184.762 178.662C184.762 179.385 183.995 179.972 183.049 179.972C182.103 179.972 181.336 179.385 181.336 178.662C181.336 177.939 182.103 177.354 183.049 177.354C183.995 177.354 184.762 177.939 184.762 178.662Z" fill="#000105"/>
<path d="M183.099 178.458C183.066 179.199 183.138 179.941 183.1 180.684C183.064 181.424 182.906 182.186 182.468 182.783C181.919 183.532 181.111 183.773 180.288 183.299M183.022 178.458C183.056 179.199 182.984 179.941 183.021 180.684C183.058 181.424 183.215 182.186 183.655 182.783C184.217 183.552 185.506 184.017 186.345 183.374M178.788 176.987C176.511 177.911 173.821 177.592 172.766 176.342" stroke="#000105" stroke-width="0.5"/>
<mask id="mask0_14_1033" style="mask-type:alpha" maskUnits="userSpaceOnUse" x="167" y="161" width="33" height="28">
<path d="M199.264 176.123L198.995 161.677L191.981 166.073C189.508 164.762 186.571 163.998 183.417 163.998C180.256 163.998 177.313 164.765 174.838 166.082L168.489 161.374L167.514 177.169C167.514 184.443 174.959 188.388 183.742 188.388C192.524 188.388 199.319 184.443 199.319 177.169C199.319 176.816 199.297 176.467 199.264 176.123Z" fill="white"/>
</mask>
<g mask="url(#mask0_14_1033)">
<path fill-rule="evenodd" clip-rule="evenodd" d="M185.04 162.457C184.923 162.382 184.805 162.318 184.69 162.269C183.771 161.877 180.025 163.001 180.932 164.461C181.066 164.678 181.334 164.823 181.377 165.076C181.399 165.205 181.355 165.336 181.313 165.461C181.157 165.935 181.03 166.467 181.232 166.922C181.468 167.452 182.119 167.719 182.688 167.611C183.257 167.503 183.73 167.083 184.019 166.581C184.252 166.179 184.392 165.707 184.736 165.397C185.029 165.133 185.435 165.021 185.72 164.749C186.524 163.985 185.818 162.96 185.04 162.457Z" fill="#000105"/>
<path fill-rule="evenodd" clip-rule="evenodd" d="M199.598 160.77C199.355 160.632 199.104 160.541 198.889 160.519C198.08 160.444 197.284 160.842 196.696 161.404C196.108 161.967 195.694 162.683 195.289 163.39C195.03 163.839 194.768 164.297 194.647 164.804C194.424 165.748 194.748 166.783 195.41 167.492C196.07 168.2 197.037 168.589 198.004 168.622C198.377 168.634 198.776 168.586 199.057 168.342C199.278 168.15 199.391 167.863 199.484 167.585C199.762 166.75 199.93 165.877 199.982 164.999C200.011 164.518 200.004 164.027 200.08 163.551C200.153 163.088 200.575 162.57 200.616 162.175C200.672 161.653 200.155 161.087 199.598 160.77Z" fill="#000105"/>
</g>
<path d="M188.621 176.826C190.848 177.865 193.551 177.685 194.668 176.491" stroke="#000105" stroke-width="0.5"/>
<path fill-rule="evenodd" clip-rule="evenodd" d="M236.975 180.901C237.244 185.489 234.224 189.61 230.692 191.365C227.46 192.97 223.654 192.999 220.132 193.338C215.694 193.766 211.258 194.199 206.821 194.63C203.329 194.968 199.661 195.37 196.792 197.393C193.924 199.416 192.28 203.642 194.24 206.557C195.486 208.41 197.839 209.251 200.069 209.272C204.318 209.311 208.555 207.833 212.643 206.922C217.033 205.943 221.283 205.333 225.762 204.862" fill="#F4B93C"/>
<path d="M191.038 205.575C191.689 203.726 192.337 201.663 191.565 199.862C190.926 198.368 189.437 197.413 187.926 196.824C186.413 196.233 184.798 195.911 183.343 195.193C181.887 194.474 180.551 193.231 180.312 191.624" stroke="#000105" stroke-width="0.5"/>
<path fill-rule="evenodd" clip-rule="evenodd" d="M191.702 188.932C192.288 191.098 191.982 193.299 191.302 195.379C190.658 197.349 190.123 199.162 188.572 200.649C187.351 201.821 185.758 202.585 184.679 203.887C184.124 204.556 183.714 205.401 183.782 206.269C183.871 207.377 184.747 208.313 185.78 208.717C186.814 209.121 187.973 209.067 189.059 208.844C192.361 208.161 195.289 205.864 196.743 202.817" fill="#F4B93C"/>
<mask id="mask1_14_1033" style="mask-type:alpha" maskUnits="userSpaceOnUse" x="193" y="180" width="44" height="30">
<path d="M236.975 180.901C237.243 185.489 234.224 189.61 230.692 191.365C227.46 192.97 223.654 192.999 220.132 193.338C215.694 193.766 211.258 194.199 206.82 194.63C203.329 194.968 199.661 195.37 196.792 197.393C193.924 199.416 192.28 203.642 194.239 206.557C195.486 208.41 197.839 209.251 200.068 209.272C204.318 209.311 208.555 207.833 212.643 206.922C217.033 205.943 221.283 205.333 225.762 204.862" fill="white"/>
</mask>
<g mask="url(#mask1_14_1033)">
<path fill-rule="evenodd" clip-rule="evenodd" d="M195.32 200.65C194.766 200.103 194.112 199.716 193.333 199.663C191.029 199.505 189.826 201.752 189.75 203.726C189.67 205.793 190.368 207.98 191.728 209.552C193.475 211.57 195.451 211.152 197.76 210.731C199.205 210.468 200.611 209.797 201.403 208.505C201.857 207.764 201.984 206.749 201.474 206.044C200.665 204.923 198.856 205.174 197.797 204.286C197.344 203.907 197.076 203.357 196.809 202.829C196.419 202.06 195.932 201.256 195.32 200.65Z" fill="#000105"/>
<path fill-rule="evenodd" clip-rule="evenodd" d="M221.392 201.249C221.37 201.198 221.349 201.148 221.326 201.099C220.789 199.911 219.667 198.908 218.367 198.867C217.775 198.848 217.184 199.028 216.681 199.339C216.013 199.754 215.496 200.406 215.24 201.149C214.842 202.305 215.075 203.609 214.653 204.756C214.047 206.415 212.225 207.377 211.566 209.015C210.971 210.499 212.94 210.611 213.931 210.895C215.365 211.304 216.94 211.492 218.359 210.921C222.045 209.436 222.818 204.592 221.392 201.249Z" fill="#000105"/>
</g>
<mask id="mask2_14_1033" style="mask-type:alpha" maskUnits="userSpaceOnUse" x="170" y="170" width="76" height="36">
<path d="M175.592 174.479C176.499 174.372 177.455 174.409 178.268 174.353C184.027 173.963 189.814 174.588 195.562 174.057C201.383 173.518 207.001 171.685 212.766 170.71C218.022 169.819 223.472 169.656 228.646 170.947C233.82 172.236 238.714 175.072 241.881 179.37C245.443 184.207 246.117 190.781 243.51 196.179C240.811 201.765 234.7 203.898 228.878 204.725C222.985 205.559 217.056 205.378 211.121 205.378C206.04 205.378 200.957 206.035 195.875 205.651C188.539 205.098 181.746 206.941 176.057 200.219C172.024 195.455 169.838 188.372 170.883 181.68C171.189 179.718 171.782 176.573 173.449 175.246C174.041 174.777 174.797 174.572 175.592 174.479Z" fill="white"/>
</mask>
<g mask="url(#mask2_14_1033)">
<path fill-rule="evenodd" clip-rule="evenodd" d="M214.385 175.426C215.408 175.507 216.445 175.434 217.448 175.211C220.006 174.645 222.462 173.109 225.049 173.523C225.87 173.655 226.657 173.983 227.485 174.06C230.571 174.347 231.03 171.134 228.781 169.594C228.1 169.128 227.293 168.882 226.493 168.678C223.933 168.031 221.24 167.758 218.614 168.123C216.615 168.401 214.737 168.644 212.959 169.699C212.356 170.056 211.772 170.486 211.401 171.082C210.685 172.235 211.01 173.919 212.105 174.722C212.743 175.191 213.553 175.359 214.342 175.422C214.357 175.424 214.37 175.425 214.385 175.426Z" fill="#000105"/>
</g>
<path d="M194.24 206.556C192.28 203.642 193.924 199.415 196.792 197.392C199.661 195.369 203.329 194.968 206.821 194.629C214.196 193.913 220.937 192.953 228.001 190.709C229.15 190.342 230.313 189.968 231.336 189.328C232.358 188.686 233.242 187.74 233.561 186.575M183.939 207.081C184.593 206.008 185.499 205.09 186.561 204.422M185.118 208.435C185.987 207.769 186.855 207.104 187.723 206.438M204.294 194.974C206.478 192.863 208.233 190.309 209.42 187.51M183.906 204.974C184.76 204.024 185.667 203.122 186.622 202.274C187.507 201.486 188.438 200.743 189.235 199.862C191.235 197.657 192.296 194.624 192.107 191.65M199.034 173.92C198.873 176.749 198.663 179.729 197.096 182.088C195.363 184.695 192.247 186.066 189.169 186.616M169.316 191.451C170.835 192.654 172.582 193.569 174.436 194.133" stroke="#000105" stroke-width="0.5"/>
</g>
<defs>
<clipPath id="clip0_14_1033">
<rect width="270" height="230" fill="white" transform="translate(0 0.190002)"/>
</clipPath>
</defs>
</svg>
