<svg width="88" height="89" viewBox="0 0 88 89" fill="none" xmlns="http://www.w3.org/2000/svg">
<g opacity="0.7">
<path d="M18.4703 33.548H3.83894C1.81062 33.548 0.166748 35.1918 0.166748 37.2202V51.8515C0.166748 53.8798 1.81062 55.5237 3.83894 55.5237H18.4703C20.4986 55.5237 22.1424 53.8798 22.1424 51.8515V37.2202C22.1424 35.1918 20.4986 33.548 18.4703 33.548ZM18.1477 50.3689C18.1477 51.0097 17.6284 51.5289 16.9877 51.5289H5.32151C4.68076 51.5289 4.16153 51.0097 4.16153 50.3689V38.7027C4.16153 38.062 4.68076 37.5428 5.32151 37.5428H16.9877C17.6284 37.5428 18.1477 38.062 18.1477 38.7027V50.3689ZM8.82357 47.5186C8.45459 47.5186 8.15851 47.2204 8.15851 46.8514V42.1937C8.15851 41.8248 8.45459 41.5243 8.82357 41.5243H13.4878C13.8546 41.5243 14.1529 41.8225 14.1529 42.1937V46.8492C14.1529 47.2181 13.8546 47.5164 13.4878 47.5164H8.82357V47.5186ZM27.9689 47.2005H30.3684C30.4877 48.5593 31.4091 49.6199 33.2673 49.6199C34.9266 49.6199 35.9474 48.8002 35.9474 47.5606C35.9474 46.4006 35.1476 45.8814 33.707 45.5411L31.8466 45.1412C29.8271 44.7015 28.307 43.4023 28.307 41.2812C28.307 38.9414 30.3861 37.3417 33.0861 37.3417C35.9452 37.3417 37.7857 38.8419 37.9448 41.0603H35.6248C35.3486 40.0218 34.4869 39.4031 33.0883 39.4031C31.6079 39.4031 30.5894 40.203 30.5894 41.2238C30.5894 42.2446 31.4687 42.8632 32.9889 43.2035L34.8294 43.6034C36.8489 44.0431 38.2276 45.2627 38.2276 47.4015C38.2276 50.1214 36.1882 51.741 33.2695 51.741C29.9884 51.7388 28.17 49.9601 27.9689 47.2005ZM46.8115 55.5237V51.5444L46.9684 49.7988H46.8115C46.2614 51.0538 45.1058 51.741 43.537 51.741C41.0072 51.741 39.1247 49.6817 39.1247 46.5244C39.1247 43.367 41.0072 41.3077 43.537 41.3077C45.0859 41.3077 46.184 42.0325 46.8115 43.1703H46.9684V41.5022H49.0475V55.5237H46.8115ZM46.8889 46.5222C46.8889 44.5027 45.6537 43.325 44.1424 43.325C42.6311 43.325 41.396 44.5027 41.396 46.5222C41.396 48.5416 42.6311 49.7193 44.1424 49.7193C45.6537 49.7193 46.8889 48.5438 46.8889 46.5222ZM50.7069 47.5628V41.5022H52.9429V47.3662C52.9429 48.9548 53.7074 49.7193 54.9823 49.7193C56.551 49.7193 57.5718 48.6013 57.5718 46.8558V41.5022H59.8078V51.5421H57.7287V49.463H57.5718C57.0813 50.7975 56.003 51.7388 54.3371 51.7388C51.942 51.7388 50.7069 50.2098 50.7069 47.5628ZM61.1689 48.7383C61.1689 46.8558 62.4835 45.7577 64.8167 45.6207L67.5808 45.4439V44.6595C67.5808 43.7183 66.8937 43.1505 65.6785 43.1505C64.5604 43.1505 63.8932 43.7183 63.7164 44.5226H61.4804C61.7168 42.4832 63.4027 41.3055 65.6762 41.3055C68.2459 41.3055 69.8146 42.4036 69.8146 44.5226V51.5421H67.7355V49.6795H67.5786C67.108 50.9146 66.127 51.7388 64.2445 51.7388C62.4437 51.7388 61.1689 50.5236 61.1689 48.7383ZM67.583 47.5032V46.9729L65.3271 47.1298C64.1119 47.2071 63.5617 47.66 63.5617 48.5615C63.5617 49.326 64.1892 49.8762 65.0708 49.8762C66.6617 49.8762 67.583 48.8576 67.583 47.5032ZM71.4828 51.5444V41.5022H73.562V43.4244H73.7188C74.0127 42.1098 75.0136 41.5022 76.5028 41.5022H77.5236V43.5217H76.2487C74.7971 43.5217 73.7188 44.4629 73.7188 46.2482V51.5421H71.4828V51.5444ZM87.7536 46.9353H80.1242C80.2413 48.7781 81.536 49.8187 82.9678 49.8187C84.183 49.8187 84.9475 49.3282 85.3806 48.5041H87.5967C86.9891 50.5434 85.2038 51.7388 82.9479 51.7388C79.9872 51.7388 77.908 49.5227 77.908 46.5222C77.908 43.5217 80.0446 41.3055 82.9678 41.3055C85.9086 41.3055 87.8309 43.325 87.8309 45.835C87.8331 46.3277 87.7934 46.5818 87.7536 46.9353ZM85.617 45.3865C85.5397 43.9945 84.3819 43.0532 82.97 43.0532C81.6355 43.0532 80.5197 43.8973 80.2435 45.3865H85.617Z" fill="#1A1A1A"/>
</g>
</svg>
