<svg width="445" height="127" viewBox="0 0 445 127" fill="none" xmlns="http://www.w3.org/2000/svg">
<path d="M110.278 46.5878V58.2824C110.278 59.3349 109.86 60.3444 109.116 61.0887C108.372 61.833 107.362 62.2511 106.31 62.2511C105.257 62.2511 104.247 61.833 103.503 61.0887C102.759 60.3444 102.341 59.3349 102.341 58.2824V46.5878C102.374 45.2153 102.141 43.8494 101.653 42.5661L63.0237 65.7436V109.082C63.6323 108.903 64.2183 108.655 64.7699 108.342L78.1579 100.933C79.0695 100.467 80.1245 100.367 81.1078 100.652C82.091 100.937 82.9285 101.587 83.4495 102.468C83.9242 103.383 84.024 104.447 83.7277 105.435C83.4314 106.423 82.7623 107.256 81.862 107.759L68.527 115.168C65.5983 116.799 62.3015 117.655 58.9491 117.655C55.5968 117.655 52.3 116.799 49.3712 115.168L17.6212 97.7053C14.5572 95.9673 12.0051 93.453 10.2215 90.4154C8.43794 87.3778 7.4859 83.924 7.46118 80.4015V46.5878C7.46118 43.0477 8.41368 39.5763 10.2128 36.5336C10.5145 35.9886 10.869 35.4753 11.2712 34.999C11.4569 34.7147 11.6695 34.4489 11.9062 34.2053C13.4479 32.185 15.3944 30.5088 17.6212 29.284L49.3712 11.7686C52.3137 10.18 55.6052 9.34827 58.9491 9.34827C62.2931 9.34827 65.5845 10.18 68.527 11.7686L100.277 29.284C102.5 30.5064 104.452 32.1839 105.992 34.2053L106.627 34.999C107.029 35.4753 107.384 35.9886 107.685 36.5336C109.454 39.5845 110.351 43.0622 110.278 46.5878Z" fill="#007456"/>
<path d="M119.539 87.069C119.546 89.2441 119.124 91.3993 118.298 93.4114C117.472 95.4236 116.258 97.2534 114.725 98.7963C113.192 100.339 111.37 101.565 109.363 102.404C107.356 103.243 105.204 103.678 103.029 103.685C100.854 103.692 98.6985 103.27 96.6864 102.444C94.6742 101.618 92.8444 100.404 91.3015 98.8711C89.7586 97.338 88.5327 95.5161 87.694 93.5092C86.8552 91.5024 86.4199 89.35 86.4129 87.1749C86.3989 82.7821 88.1305 78.5637 91.2267 75.4476C94.3229 72.3316 98.5302 70.5731 102.923 70.559C107.316 70.545 111.534 72.2766 114.65 75.3728C117.766 78.469 119.525 82.6763 119.539 87.069Z" fill="#007456"/>
<path d="M185.314 101.118C181.014 101.118 176.972 100.315 173.188 98.71C169.461 97.0473 166.193 94.8113 163.384 92.002C160.575 89.1927 158.339 85.9247 156.676 82.198C155.071 78.414 154.268 74.372 154.268 70.072C154.268 65.772 155.071 61.7587 156.676 58.032C158.339 54.248 160.575 50.9513 163.384 48.142C166.193 45.3327 169.461 43.1253 173.188 41.52C176.972 39.8573 181.014 39.026 185.314 39.026C189.614 39.026 193.627 39.8573 197.354 41.52C201.138 43.1253 204.435 45.3327 207.244 48.142C210.053 50.9513 212.261 54.248 213.866 58.032C215.529 61.7587 216.36 65.772 216.36 70.072C216.36 74.372 215.529 78.414 213.866 82.198C212.261 85.9247 210.053 89.1927 207.244 92.002C204.435 94.8113 201.138 97.0473 197.354 98.71C193.627 100.315 189.614 101.118 185.314 101.118ZM185.314 89.852C188.066 89.852 190.617 89.336 192.968 88.304C195.376 87.272 197.469 85.8673 199.246 84.09C201.081 82.2553 202.514 80.1627 203.546 77.812C204.578 75.404 205.094 72.824 205.094 70.072C205.094 67.32 204.578 64.7687 203.546 62.418C202.514 60.01 201.081 57.9173 199.246 56.14C197.469 54.3053 195.376 52.872 192.968 51.84C190.617 50.808 188.066 50.292 185.314 50.292C182.562 50.292 179.982 50.808 177.574 51.84C175.166 52.872 173.045 54.3053 171.21 56.14C169.433 57.9173 168.028 60.01 166.996 62.418C165.964 64.7687 165.448 67.32 165.448 70.072C165.448 72.824 165.964 75.404 166.996 77.812C168.028 80.1627 169.433 82.2553 171.21 84.09C173.045 85.8673 175.166 87.272 177.574 88.304C179.982 89.336 182.562 89.852 185.314 89.852ZM228.217 66.546H221.079V57H228.217V53.13C228.217 50.2633 228.504 47.9127 229.077 46.078C229.708 44.186 230.597 42.6953 231.743 41.606C232.947 40.5167 234.381 39.7713 236.043 39.37C237.706 38.9113 239.598 38.682 241.719 38.682C242.751 38.682 243.812 38.7393 244.901 38.854C246.048 38.9113 247.252 38.9973 248.513 39.112V48.83C247.768 48.7727 247.08 48.7153 246.449 48.658C245.819 48.6007 245.188 48.572 244.557 48.572C242.665 48.572 241.232 48.9447 240.257 49.69C239.283 50.4353 238.795 51.8113 238.795 53.818V57H248.427V66.546H238.795V100H228.217V66.546ZM293.409 47.024C291.861 47.024 290.514 46.4793 289.367 45.39C288.278 44.3007 287.733 42.9533 287.733 41.348C287.733 39.7427 288.278 38.3953 289.367 37.306C290.514 36.1593 291.861 35.586 293.409 35.586C294.957 35.586 296.276 36.1593 297.365 37.306C298.512 38.3953 299.085 39.7427 299.085 41.348C299.085 42.9533 298.512 44.3007 297.365 45.39C296.276 46.4793 294.957 47.024 293.409 47.024ZM260.299 66.546H253.161V57H260.299V53.13C260.299 50.2633 260.586 47.9127 261.159 46.078C261.79 44.186 262.679 42.6953 263.825 41.606C265.029 40.5167 266.463 39.7713 268.125 39.37C269.788 38.9113 271.68 38.682 273.801 38.682C274.833 38.682 275.894 38.7393 276.983 38.854C278.13 38.9113 279.334 38.9973 280.595 39.112V48.83C279.85 48.7727 279.162 48.7153 278.531 48.658C277.901 48.6007 277.27 48.572 276.639 48.572C274.747 48.572 273.314 48.9447 272.339 49.69C271.365 50.4353 270.877 51.8113 270.877 53.818V57H280.509V66.546H270.877V100H260.299V66.546ZM287.991 57H298.655V100H287.991V57ZM349.133 91.658C347.069 94.582 344.432 96.904 341.221 98.624C338.011 100.344 334.513 101.204 330.729 101.204C327.576 101.204 324.623 100.631 321.871 99.484C319.119 98.28 316.711 96.646 314.647 94.582C312.583 92.518 310.949 90.11 309.745 87.358C308.599 84.606 308.025 81.682 308.025 78.586C308.025 75.49 308.599 72.566 309.745 69.814C310.949 67.062 312.583 64.654 314.647 62.59C316.711 60.526 319.119 58.9207 321.871 57.774C324.623 56.57 327.576 55.968 330.729 55.968C334.513 55.968 337.982 56.828 341.135 58.548C344.346 60.2107 346.983 62.4753 349.047 65.342L340.189 71.276C338.928 69.7853 337.495 68.6387 335.889 67.836C334.284 66.976 332.564 66.546 330.729 66.546C329.067 66.546 327.49 66.8613 325.999 67.492C324.566 68.1227 323.305 68.9827 322.215 70.072C321.126 71.1613 320.266 72.4513 319.635 73.942C319.005 75.3753 318.689 76.9233 318.689 78.586C318.689 80.2487 319.005 81.8253 319.635 83.316C320.266 84.7493 321.126 86.0107 322.215 87.1C323.305 88.132 324.566 88.9633 325.999 89.594C327.49 90.2247 329.067 90.54 330.729 90.54C332.679 90.54 334.456 90.11 336.061 89.25C337.667 88.39 339.043 87.2433 340.189 85.81L349.133 91.658ZM375.997 55.882C379.207 55.882 382.131 56.484 384.769 57.688C387.406 58.8347 389.671 60.44 391.563 62.504C393.455 64.568 394.917 66.976 395.949 69.728C397.038 72.48 397.583 75.4327 397.583 78.586C397.583 79.962 397.468 81.2233 397.239 82.37H363.957C364.702 85.294 366.193 87.6447 368.429 89.422C370.722 91.142 373.531 92.002 376.857 92.002C378.978 92.002 380.985 91.572 382.877 90.712C384.826 89.7947 386.288 88.5907 387.263 87.1L395.433 91.916C393.426 94.84 390.846 97.1047 387.693 98.71C384.539 100.315 380.87 101.118 376.685 101.118C373.187 101.118 369.977 100.545 367.053 99.398C364.186 98.2513 361.721 96.6747 359.657 94.668C357.65 92.604 356.073 90.196 354.927 87.444C353.837 84.692 353.293 81.7107 353.293 78.5C353.293 75.2893 353.837 72.308 354.927 69.556C356.073 66.804 357.621 64.4247 359.571 62.418C361.577 60.4113 363.985 58.8347 366.795 57.688C369.604 56.484 372.671 55.882 375.997 55.882ZM387.521 74.028C387.119 71.2187 385.858 69.04 383.737 67.492C381.615 65.944 378.978 65.17 375.825 65.17C374.162 65.17 372.614 65.428 371.181 65.944C369.747 66.4027 368.486 67.0333 367.397 67.836C366.307 68.6387 365.447 69.5847 364.817 70.674C364.186 71.706 363.842 72.824 363.785 74.028H387.521ZM414.8 69.04C414.8 70.1867 415.402 71.0467 416.606 71.62C417.867 72.1933 419.415 72.7093 421.25 73.168C423.142 73.5693 425.148 74.028 427.27 74.544C429.448 75.0027 431.455 75.748 433.29 76.78C435.182 77.7547 436.73 79.102 437.934 80.822C439.195 82.4847 439.826 84.7207 439.826 87.53C439.826 89.7087 439.31 91.658 438.278 93.378C437.303 95.0407 435.956 96.4453 434.236 97.592C432.516 98.7387 430.538 99.5987 428.302 100.172C426.066 100.803 423.715 101.118 421.25 101.118C416.72 101.118 412.85 100.258 409.64 98.538C406.429 96.818 404.05 94.3527 402.502 91.142L411.274 86.584C412.076 88.7053 413.338 90.2247 415.058 91.142C416.778 92.0593 418.842 92.518 421.25 92.518C422.282 92.518 423.285 92.432 424.26 92.26C425.234 92.0307 426.094 91.7153 426.84 91.314C427.642 90.9127 428.273 90.3967 428.732 89.766C429.248 89.1353 429.506 88.39 429.506 87.53C429.506 86.2687 428.875 85.3227 427.614 84.692C426.352 84.004 424.776 83.4307 422.884 82.972C421.049 82.456 419.014 81.9687 416.778 81.51C414.599 80.994 412.564 80.2773 410.672 79.36C408.837 78.3853 407.289 77.124 406.028 75.576C404.766 74.028 404.136 71.964 404.136 69.384C404.136 67.2627 404.594 65.3707 405.512 63.708C406.429 62.0453 407.662 60.6407 409.21 59.494C410.815 58.29 412.65 57.4013 414.714 56.828C416.835 56.1973 419.042 55.882 421.336 55.882C425.062 55.882 428.388 56.656 431.312 58.204C434.293 59.6947 436.615 61.902 438.278 64.826L429.592 69.212C428.846 67.664 427.814 66.4887 426.496 65.686C425.177 64.826 423.457 64.396 421.336 64.396C419.329 64.396 417.724 64.826 416.52 65.686C415.373 66.4887 414.8 67.6067 414.8 69.04Z" fill="black"/>
</svg>
